<svg xmlns="http://www.w3.org/2000/svg" xmlns:xlink="http://www.w3.org/1999/xlink" viewBox="0 0 835.29 674.07"><defs><style>.cls-1,.cls-10,.cls-100,.cls-101,.cls-102,.cls-103,.cls-104,.cls-105,.cls-106,.cls-107,.cls-11,.cls-12,.cls-13,.cls-14,.cls-15,.cls-16,.cls-17,.cls-18,.cls-19,.cls-20,.cls-21,.cls-22,.cls-23,.cls-24,.cls-25,.cls-26,.cls-27,.cls-28,.cls-29,.cls-30,.cls-31,.cls-32,.cls-33,.cls-34,.cls-35,.cls-36,.cls-37,.cls-38,.cls-39,.cls-40,.cls-41,.cls-42,.cls-43,.cls-44,.cls-45,.cls-46,.cls-47,.cls-48,.cls-49,.cls-5,.cls-50,.cls-51,.cls-52,.cls-53,.cls-54,.cls-55,.cls-56,.cls-57,.cls-58,.cls-59,.cls-6,.cls-60,.cls-61,.cls-62,.cls-63,.cls-64,.cls-65,.cls-66,.cls-67,.cls-68,.cls-69,.cls-7,.cls-70,.cls-71,.cls-72,.cls-73,.cls-74,.cls-75,.cls-76,.cls-77,.cls-78,.cls-79,.cls-8,.cls-80,.cls-81,.cls-82,.cls-83,.cls-84,.cls-85,.cls-86,.cls-87,.cls-88,.cls-89,.cls-9,.cls-90,.cls-91,.cls-93,.cls-94,.cls-95,.cls-96,.cls-97,.cls-98,.cls-99{fill:none;}.cls-2{isolation:isolate;}.cls-3{fill:url(#linear-gradient);}.cls-4{clip-path:url(#clip-path);}.cls-10,.cls-100,.cls-101,.cls-102,.cls-103,.cls-104,.cls-105,.cls-106,.cls-107,.cls-11,.cls-12,.cls-13,.cls-14,.cls-15,.cls-16,.cls-17,.cls-18,.cls-19,.cls-20,.cls-21,.cls-22,.cls-23,.cls-24,.cls-25,.cls-26,.cls-27,.cls-28,.cls-29,.cls-30,.cls-31,.cls-32,.cls-33,.cls-34,.cls-35,.cls-36,.cls-37,.cls-38,.cls-39,.cls-40,.cls-41,.cls-42,.cls-43,.cls-44,.cls-45,.cls-46,.cls-47,.cls-48,.cls-49,.cls-5,.cls-50,.cls-51,.cls-52,.cls-53,.cls-54,.cls-55,.cls-56,.cls-57,.cls-58,.cls-59,.cls-6,.cls-60,.cls-61,.cls-62,.cls-63,.cls-64,.cls-65,.cls-66,.cls-67,.cls-68,.cls-69,.cls-7,.cls-70,.cls-71,.cls-72,.cls-73,.cls-74,.cls-75,.cls-76,.cls-77,.cls-78,.cls-79,.cls-8,.cls-80,.cls-81,.cls-82,.cls-83,.cls-84,.cls-85,.cls-86,.cls-87,.cls-88,.cls-89,.cls-9,.cls-90,.cls-91,.cls-93,.cls-94,.cls-95,.cls-96,.cls-97,.cls-98,.cls-99{stroke-linecap:round;stroke-miterlimit:10;}.cls-5,.cls-6,.cls-7{stroke-width:3px;}.cls-5{stroke:url(#linear-gradient-2);}.cls-6{stroke-dasharray:0 9.01;stroke:url(#linear-gradient-3);}.cls-7{stroke:url(#linear-gradient-4);}.cls-10,.cls-8,.cls-9{stroke-width:2.9px;}.cls-8{stroke:url(#linear-gradient-5);}.cls-9{stroke-dasharray:0 8.79;stroke:url(#linear-gradient-6);}.cls-10{stroke:url(#linear-gradient-7);}.cls-11,.cls-12,.cls-13{stroke-width:2.8px;}.cls-11{stroke:url(#linear-gradient-8);}.cls-12{stroke-dasharray:0 8.66;stroke:url(#linear-gradient-9);}.cls-13{stroke:url(#linear-gradient-10);}.cls-14,.cls-15,.cls-16{stroke-width:2.71px;}.cls-14{stroke:url(#linear-gradient-11);}.cls-15{stroke-dasharray:0 8.45;stroke:url(#linear-gradient-12);}.cls-16{stroke:url(#linear-gradient-13);}.cls-17,.cls-18,.cls-19{stroke-width:2.61px;}.cls-17{stroke:url(#linear-gradient-14);}.cls-18{stroke-dasharray:0 8.26;stroke:url(#linear-gradient-15);}.cls-19{stroke:url(#linear-gradient-16);}.cls-20,.cls-21,.cls-22{stroke-width:2.51px;}.cls-20{stroke:url(#linear-gradient-17);}.cls-21{stroke-dasharray:0 8.14;stroke:url(#linear-gradient-18);}.cls-22{stroke:url(#linear-gradient-19);}.cls-23,.cls-24,.cls-25{stroke-width:2.41px;}.cls-23{stroke:url(#linear-gradient-20);}.cls-24{stroke-dasharray:0 7.96;stroke:url(#linear-gradient-21);}.cls-25{stroke:url(#linear-gradient-22);}.cls-26,.cls-27,.cls-28{stroke-width:2.31px;}.cls-26{stroke:url(#linear-gradient-23);}.cls-27{stroke-dasharray:0 7.72;stroke:url(#linear-gradient-24);}.cls-28{stroke:url(#linear-gradient-25);}.cls-29,.cls-30,.cls-31{stroke-width:2.21px;}.cls-29{stroke:url(#linear-gradient-26);}.cls-30{stroke-dasharray:0 7.56;stroke:url(#linear-gradient-27);}.cls-31{stroke:url(#linear-gradient-28);}.cls-32,.cls-33,.cls-34{stroke-width:2.12px;}.cls-32{stroke:url(#linear-gradient-29);}.cls-33{stroke-dasharray:0 7.42;stroke:url(#linear-gradient-30);}.cls-34{stroke:url(#linear-gradient-31);}.cls-35,.cls-36,.cls-37{stroke-width:2.02px;}.cls-35{stroke:url(#linear-gradient-32);}.cls-36{stroke-dasharray:0 7.22;stroke:url(#linear-gradient-33);}.cls-37{stroke:url(#linear-gradient-34);}.cls-38,.cls-39,.cls-40{stroke-width:1.92px;}.cls-38{stroke:url(#linear-gradient-35);}.cls-39{stroke-dasharray:0 7.03;stroke:url(#linear-gradient-36);}.cls-40{stroke:url(#linear-gradient-37);}.cls-41,.cls-42,.cls-43{stroke-width:1.82px;}.cls-41{stroke:url(#linear-gradient-38);}.cls-42{stroke-dasharray:0 6.86;stroke:url(#linear-gradient-39);}.cls-43{stroke:url(#linear-gradient-40);}.cls-44,.cls-45,.cls-46{stroke-width:1.72px;}.cls-44{stroke:url(#linear-gradient-41);}.cls-45{stroke-dasharray:0 6.7;stroke:url(#linear-gradient-42);}.cls-46{stroke:url(#linear-gradient-43);}.cls-104,.cls-47,.cls-48,.cls-49{stroke-width:1.63px;}.cls-47{stroke:url(#linear-gradient-44);}.cls-48{stroke-dasharray:0 6.51;stroke:url(#linear-gradient-45);}.cls-49{stroke:url(#linear-gradient-46);}.cls-50,.cls-51,.cls-52{stroke-width:1.53px;}.cls-50{stroke:url(#linear-gradient-47);}.cls-51{stroke-dasharray:0 6.33;stroke:url(#linear-gradient-48);}.cls-52{stroke:url(#linear-gradient-49);}.cls-53,.cls-54,.cls-55{stroke-width:1.43px;}.cls-53{stroke:url(#linear-gradient-50);}.cls-54{stroke-dasharray:0 6.12;stroke:url(#linear-gradient-51);}.cls-55{stroke:url(#linear-gradient-52);}.cls-56,.cls-57,.cls-58{stroke-width:1.33px;}.cls-56{stroke:url(#linear-gradient-53);}.cls-57{stroke-dasharray:0 5.98;stroke:url(#linear-gradient-54);}.cls-58{stroke:url(#linear-gradient-55);}.cls-59,.cls-60,.cls-61{stroke-width:1.23px;}.cls-59{stroke:url(#linear-gradient-56);}.cls-60{stroke-dasharray:0 5.77;stroke:url(#linear-gradient-57);}.cls-61{stroke:url(#linear-gradient-58);}.cls-62,.cls-63,.cls-64{stroke-width:1.13px;}.cls-62{stroke:url(#linear-gradient-59);}.cls-63{stroke-dasharray:0 5.61;stroke:url(#linear-gradient-60);}.cls-64{stroke:url(#linear-gradient-61);}.cls-65,.cls-66,.cls-67{stroke-width:1.04px;}.cls-65{stroke:url(#linear-gradient-62);}.cls-66{stroke-dasharray:0 5.44;stroke:url(#linear-gradient-63);}.cls-67{stroke:url(#linear-gradient-64);}.cls-68,.cls-69,.cls-70{stroke-width:0.94px;}.cls-68{stroke:url(#linear-gradient-65);}.cls-69{stroke-dasharray:0 5.26;stroke:url(#linear-gradient-66);}.cls-70{stroke:url(#linear-gradient-67);}.cls-71,.cls-72,.cls-73{stroke-width:0.84px;}.cls-71{stroke:url(#linear-gradient-68);}.cls-72{stroke-dasharray:0 5.06;stroke:url(#linear-gradient-69);}.cls-73{stroke:url(#linear-gradient-70);}.cls-74,.cls-75,.cls-76{stroke-width:0.74px;}.cls-74{stroke:url(#linear-gradient-71);}.cls-75{stroke-dasharray:0 4.88;stroke:url(#linear-gradient-72);}.cls-76{stroke:url(#linear-gradient-73);}.cls-77,.cls-78,.cls-79{stroke-width:0.64px;}.cls-77{stroke:url(#linear-gradient-74);}.cls-78{stroke-dasharray:0 4.73;stroke:url(#linear-gradient-75);}.cls-79{stroke:url(#linear-gradient-76);}.cls-80,.cls-81,.cls-82{stroke-width:0.54px;}.cls-80{stroke:url(#linear-gradient-77);}.cls-81{stroke-dasharray:0 4.54;stroke:url(#linear-gradient-78);}.cls-82{stroke:url(#linear-gradient-79);}.cls-83,.cls-84,.cls-85{stroke-width:0.45px;}.cls-83{stroke:url(#linear-gradient-80);}.cls-84{stroke-dasharray:0 4.35;stroke:url(#linear-gradient-81);}.cls-85{stroke:url(#linear-gradient-82);}.cls-86,.cls-87,.cls-88{stroke-width:0.35px;}.cls-86{stroke:url(#linear-gradient-83);}.cls-87{stroke-dasharray:0 4.18;stroke:url(#linear-gradient-84);}.cls-88{stroke:url(#linear-gradient-85);}.cls-89,.cls-90,.cls-91,.cls-93{stroke-width:0.25px;}.cls-89{stroke:url(#linear-gradient-86);}.cls-90{stroke-dasharray:0 4;stroke:url(#linear-gradient-87);}.cls-91{stroke:url(#linear-gradient-88);}.cls-92{mix-blend-mode:overlay;}.cls-100,.cls-101,.cls-102,.cls-103,.cls-104,.cls-105,.cls-106,.cls-107,.cls-93,.cls-94,.cls-95,.cls-96,.cls-97,.cls-98,.cls-99{stroke:#fff;stroke-dasharray:0 4;}.cls-94{stroke-width:0.38px;}.cls-95{stroke-width:0.5px;}.cls-96{stroke-width:0.63px;}.cls-97{stroke-width:0.75px;}.cls-98{stroke-width:0.88px;}.cls-100{stroke-width:1.13px;}.cls-101{stroke-width:1.25px;}.cls-102{stroke-width:1.38px;}.cls-103{stroke-width:1.5px;}.cls-105{stroke-width:1.75px;}.cls-106{stroke-width:1.88px;}.cls-107{stroke-width:2px;}</style><linearGradient id="linear-gradient" x1="281.73" y1="-218.99" x2="460.22" y2="547.47" gradientUnits="userSpaceOnUse"><stop offset="0" stop-color="#165ae6"/><stop offset="0.09" stop-color="#144bca"/><stop offset="0.24" stop-color="#10349e"/><stop offset="0.39" stop-color="#0d217b"/><stop offset="0.54" stop-color="#0b135f"/><stop offset="0.69" stop-color="#09084b"/><stop offset="0.85" stop-color="#08023f"/><stop offset="1" stop-color="#08003b"/></linearGradient><clipPath id="clip-path" transform="translate(31.91 68.54)"><rect class="cls-1" width="750" height="500"/></clipPath><linearGradient id="linear-gradient-2" x1="17.43" y1="672.57" x2="835.29" y2="672.57" gradientUnits="userSpaceOnUse"><stop offset="0" stop-color="#ff0fa3"/><stop offset="0.12" stop-color="#e618ac"/><stop offset="0.39" stop-color="#a730c3"/><stop offset="0.77" stop-color="#4256e7"/><stop offset="1" stop-color="#006fff"/></linearGradient><linearGradient id="linear-gradient-3" x1="-14.47" y1="431.28" x2="803.39" y2="431.28" xlink:href="#linear-gradient-2"/><linearGradient id="linear-gradient-4" x1="17.43" y1="523.9" x2="835.29" y2="523.9" xlink:href="#linear-gradient-2"/><linearGradient id="linear-gradient-5" x1="16.81" y1="657.49" x2="835.01" y2="657.49" gradientUnits="userSpaceOnUse"><stop offset="0" stop-color="#f817a6"/><stop offset="0.13" stop-color="#df20af"/><stop offset="0.4" stop-color="#a036c5"/><stop offset="0.8" stop-color="#3c58e9"/><stop offset="1" stop-color="#076bfc"/></linearGradient><linearGradient id="linear-gradient-6" x1="-15.1" y1="424.57" x2="802.98" y2="424.57" xlink:href="#linear-gradient-5"/><linearGradient id="linear-gradient-7" x1="16.97" y1="517.07" x2="834.89" y2="517.07" xlink:href="#linear-gradient-5"/><linearGradient id="linear-gradient-8" x1="16.19" y1="642.42" x2="834.44" y2="642.42" gradientUnits="userSpaceOnUse"><stop offset="0" stop-color="#f01faa"/><stop offset="0.14" stop-color="#d827b2"/><stop offset="0.42" stop-color="#993ac8"/><stop offset="0.84" stop-color="#365aea"/><stop offset="1" stop-color="#0d67f8"/></linearGradient><linearGradient id="linear-gradient-9" x1="-15.72" y1="417.82" x2="802.57" y2="417.82" xlink:href="#linear-gradient-8"/><linearGradient id="linear-gradient-10" x1="15.94" y1="510.24" x2="834.48" y2="510.24" xlink:href="#linear-gradient-8"/><linearGradient id="linear-gradient-11" x1="15.56" y1="627.35" x2="834.16" y2="627.35" gradientUnits="userSpaceOnUse"><stop offset="0" stop-color="#e926ad"/><stop offset="0.14" stop-color="#d12db5"/><stop offset="0.44" stop-color="#933fca"/><stop offset="0.88" stop-color="#315beb"/><stop offset="1" stop-color="#1463f5"/></linearGradient><linearGradient id="linear-gradient-12" x1="-16.34" y1="411.06" x2="802.17" y2="411.06" xlink:href="#linear-gradient-11"/><linearGradient id="linear-gradient-13" x1="15.48" y1="503.41" x2="834.07" y2="503.41" xlink:href="#linear-gradient-11"/><linearGradient id="linear-gradient-14" x1="14.94" y1="612.28" x2="833.58" y2="612.28" gradientUnits="userSpaceOnUse"><stop offset="0" stop-color="#e12eb0"/><stop offset="0.15" stop-color="#c934b8"/><stop offset="0.47" stop-color="#8c43cc"/><stop offset="0.93" stop-color="#2b5bed"/><stop offset="1" stop-color="#1b5ff2"/></linearGradient><linearGradient id="linear-gradient-15" x1="-16.96" y1="404.27" x2="801.77" y2="404.27" xlink:href="#linear-gradient-14"/><linearGradient id="linear-gradient-16" x1="15.03" y1="496.59" x2="833.67" y2="496.59" xlink:href="#linear-gradient-14"/><linearGradient id="linear-gradient-17" x1="14.32" y1="597.2" x2="833.31" y2="597.2" gradientUnits="userSpaceOnUse"><stop offset="0" stop-color="#da36b3"/><stop offset="0.16" stop-color="#c23bba"/><stop offset="0.5" stop-color="#8647ce"/><stop offset="0.98" stop-color="#265aec"/><stop offset="1" stop-color="#215bee"/></linearGradient><linearGradient id="linear-gradient-18" x1="-17.59" y1="397.43" x2="801.36" y2="397.43" xlink:href="#linear-gradient-17"/><linearGradient id="linear-gradient-19" x1="14.59" y1="489.76" x2="833.26" y2="489.76" xlink:href="#linear-gradient-17"/><linearGradient id="linear-gradient-20" x1="13.7" y1="582.13" x2="832.71" y2="582.13" gradientUnits="userSpaceOnUse"><stop offset="0" stop-color="#d33eb7"/><stop offset="0.17" stop-color="#bc41be"/><stop offset="0.53" stop-color="#804ad0"/><stop offset="1" stop-color="#2857eb"/></linearGradient><linearGradient id="linear-gradient-21" x1="-18.21" y1="390.55" x2="800.95" y2="390.55" xlink:href="#linear-gradient-20"/><linearGradient id="linear-gradient-22" x1="13.51" y1="482.93" x2="832.86" y2="482.93" xlink:href="#linear-gradient-20"/><linearGradient id="linear-gradient-23" x1="13.07" y1="567.06" x2="832.45" y2="567.06" gradientUnits="userSpaceOnUse"><stop offset="0" stop-color="#cb46ba"/><stop offset="0.18" stop-color="#b448c1"/><stop offset="0.57" stop-color="#794dd2"/><stop offset="1" stop-color="#2f53e8"/></linearGradient><linearGradient id="linear-gradient-24" x1="-18.83" y1="383.62" x2="800.55" y2="383.62" xlink:href="#linear-gradient-23"/><linearGradient id="linear-gradient-25" x1="13.07" y1="476.1" x2="832.45" y2="476.1" xlink:href="#linear-gradient-23"/><linearGradient id="linear-gradient-26" x1="12.45" y1="551.98" x2="832.2" y2="551.98" gradientUnits="userSpaceOnUse"><stop offset="0" stop-color="#c44ebd"/><stop offset="0.2" stop-color="#ad4ec3"/><stop offset="0.6" stop-color="#734fd3"/><stop offset="1" stop-color="#354fe4"/></linearGradient><linearGradient id="linear-gradient-27" x1="-19.45" y1="376.61" x2="800.14" y2="376.61" xlink:href="#linear-gradient-26"/><linearGradient id="linear-gradient-28" x1="12.66" y1="469.27" x2="832.04" y2="469.27" xlink:href="#linear-gradient-26"/><linearGradient id="linear-gradient-29" x1="11.83" y1="536.91" x2="831.58" y2="536.91" gradientUnits="userSpaceOnUse"><stop offset="0" stop-color="#bc55c1"/><stop offset="0.21" stop-color="#a553c7"/><stop offset="0.66" stop-color="#6c4fd5"/><stop offset="1" stop-color="#3c4be1"/></linearGradient><linearGradient id="linear-gradient-30" x1="-20.08" y1="369.49" x2="799.73" y2="369.49" xlink:href="#linear-gradient-29"/><linearGradient id="linear-gradient-31" x1="11.51" y1="462.44" x2="831.64" y2="462.44" xlink:href="#linear-gradient-29"/><linearGradient id="linear-gradient-32" x1="11.21" y1="521.84" x2="831.34" y2="521.84" gradientUnits="userSpaceOnUse"><stop offset="0" stop-color="#b55dc4"/><stop offset="0.23" stop-color="#9f59c9"/><stop offset="0.72" stop-color="#654ed5"/><stop offset="1" stop-color="#4247dd"/></linearGradient><linearGradient id="linear-gradient-33" x1="-20.7" y1="362.24" x2="799.32" y2="362.24" xlink:href="#linear-gradient-32"/><linearGradient id="linear-gradient-34" x1="11.09" y1="455.61" x2="831.23" y2="455.61" xlink:href="#linear-gradient-32"/><linearGradient id="linear-gradient-35" x1="10.58" y1="506.76" x2="830.7" y2="506.76" gradientUnits="userSpaceOnUse"><stop offset="0" stop-color="#ae65c7"/><stop offset="0.26" stop-color="#985ecb"/><stop offset="0.8" stop-color="#5f4ad6"/><stop offset="1" stop-color="#4943da"/></linearGradient><linearGradient id="linear-gradient-36" x1="-21.32" y1="354.79" x2="798.92" y2="354.79" xlink:href="#linear-gradient-35"/><linearGradient id="linear-gradient-37" x1="10.7" y1="448.79" x2="830.83" y2="448.79" xlink:href="#linear-gradient-35"/><linearGradient id="linear-gradient-38" x1="9.96" y1="491.69" x2="830.48" y2="491.69" gradientUnits="userSpaceOnUse"><stop offset="0" stop-color="#a66dca"/><stop offset="0.3" stop-color="#9061cd"/><stop offset="0.92" stop-color="#5843d6"/><stop offset="1" stop-color="#503fd7"/></linearGradient><linearGradient id="linear-gradient-39" x1="-21.95" y1="347.08" x2="798.51" y2="347.08" xlink:href="#linear-gradient-38"/><linearGradient id="linear-gradient-40" x1="10.34" y1="441.96" x2="830.42" y2="441.96" xlink:href="#linear-gradient-38"/><linearGradient id="linear-gradient-41" x1="9.34" y1="476.62" x2="829.81" y2="476.62" gradientUnits="userSpaceOnUse"><stop offset="0" stop-color="#9f75ce"/><stop offset="0.34" stop-color="#8964cf"/><stop offset="1" stop-color="#563bd3"/></linearGradient><linearGradient id="linear-gradient-42" x1="-22.57" y1="339.01" x2="798.11" y2="339.01" xlink:href="#linear-gradient-41"/><linearGradient id="linear-gradient-43" x1="9.07" y1="435.13" x2="830.01" y2="435.13" xlink:href="#linear-gradient-41"/><linearGradient id="linear-gradient-44" x1="8.72" y1="461.55" x2="829.61" y2="461.55" gradientUnits="userSpaceOnUse"><stop offset="0" stop-color="#977dd1"/><stop offset="0.35" stop-color="#8567d1"/><stop offset="1" stop-color="#5d37d0"/></linearGradient><linearGradient id="linear-gradient-45" x1="-23.19" y1="330.45" x2="797.7" y2="330.45" xlink:href="#linear-gradient-44"/><linearGradient id="linear-gradient-46" x1="8.72" y1="428.3" x2="829.61" y2="428.3" xlink:href="#linear-gradient-44"/><linearGradient id="linear-gradient-47" x1="8.09" y1="446.47" x2="829.43" y2="446.47" gradientUnits="userSpaceOnUse"><stop offset="0" stop-color="#9084d4"/><stop offset="0.31" stop-color="#846fd2"/><stop offset="0.96" stop-color="#6638cd"/><stop offset="1" stop-color="#6434cd"/></linearGradient><linearGradient id="linear-gradient-48" x1="-23.81" y1="321.28" x2="797.29" y2="321.28" xlink:href="#linear-gradient-47"/><linearGradient id="linear-gradient-49" x1="8.39" y1="421.47" x2="829.2" y2="421.47" xlink:href="#linear-gradient-47"/><linearGradient id="linear-gradient-50" x1="7.47" y1="431.4" x2="828.71" y2="431.4" gradientUnits="userSpaceOnUse"><stop offset="0" stop-color="#898cd8"/><stop offset="0.27" stop-color="#8277d5"/><stop offset="0.84" stop-color="#7041cc"/><stop offset="1" stop-color="#6a30c9"/></linearGradient><linearGradient id="linear-gradient-51" x1="-24.43" y1="311.4" x2="796.89" y2="311.4" xlink:href="#linear-gradient-50"/><linearGradient id="linear-gradient-52" x1="6.99" y1="414.64" x2="828.79" y2="414.64" xlink:href="#linear-gradient-50"/><linearGradient id="linear-gradient-53" x1="6.85" y1="416.33" x2="828.56" y2="416.33" gradientUnits="userSpaceOnUse"><stop offset="0" stop-color="#8194db"/><stop offset="0.25" stop-color="#7e7fd7"/><stop offset="0.75" stop-color="#7549cc"/><stop offset="1" stop-color="#712cc6"/></linearGradient><linearGradient id="linear-gradient-54" x1="-25.06" y1="300.8" x2="796.48" y2="300.8" xlink:href="#linear-gradient-53"/><linearGradient id="linear-gradient-55" x1="6.67" y1="407.81" x2="828.39" y2="407.81" xlink:href="#linear-gradient-53"/><linearGradient id="linear-gradient-56" x1="6.23" y1="401.25" x2="827.79" y2="401.25" gradientUnits="userSpaceOnUse"><stop offset="0" stop-color="#7a9cde"/><stop offset="0.22" stop-color="#7a87d9"/><stop offset="0.67" stop-color="#7952cd"/><stop offset="1" stop-color="#7828c3"/></linearGradient><linearGradient id="linear-gradient-57" x1="-25.68" y1="290.51" x2="796.08" y2="290.51" xlink:href="#linear-gradient-56"/><linearGradient id="linear-gradient-58" x1="6.41" y1="400.99" x2="827.98" y2="400.99" xlink:href="#linear-gradient-56"/><linearGradient id="linear-gradient-59" x1="5.6" y1="386.18" x2="827.68" y2="386.18" gradientUnits="userSpaceOnUse"><stop offset="0" stop-color="#73a4e1"/><stop offset="0.2" stop-color="#758fdc"/><stop offset="0.61" stop-color="#795bcd"/><stop offset="1" stop-color="#7e24bf"/></linearGradient><linearGradient id="linear-gradient-60" x1="-26.3" y1="283.24" x2="795.67" y2="283.24" xlink:href="#linear-gradient-59"/><linearGradient id="linear-gradient-61" x1="6.21" y1="394.16" x2="827.57" y2="394.16" xlink:href="#linear-gradient-59"/><linearGradient id="linear-gradient-62" x1="4.98" y1="371.11" x2="826.83" y2="371.11" gradientUnits="userSpaceOnUse"><stop offset="0" stop-color="#6babe5"/><stop offset="0.19" stop-color="#6f97df"/><stop offset="0.57" stop-color="#7962cf"/><stop offset="1" stop-color="#8520bc"/></linearGradient><linearGradient id="linear-gradient-63" x1="-26.93" y1="276.85" x2="795.26" y2="276.85" xlink:href="#linear-gradient-62"/><linearGradient id="linear-gradient-64" x1="4.54" y1="387.33" x2="827.17" y2="387.33" xlink:href="#linear-gradient-62"/><linearGradient id="linear-gradient-65" x1="4.36" y1="356.04" x2="826.76" y2="356.04" gradientUnits="userSpaceOnUse"><stop offset="0" stop-color="#64b3e8"/><stop offset="0.17" stop-color="#699fe2"/><stop offset="0.53" stop-color="#776ad1"/><stop offset="1" stop-color="#8c1cb9"/></linearGradient><linearGradient id="linear-gradient-66" x1="-27.55" y1="270.89" x2="794.86" y2="270.89" xlink:href="#linear-gradient-65"/><linearGradient id="linear-gradient-67" x1="4.36" y1="380.5" x2="826.76" y2="380.5" xlink:href="#linear-gradient-65"/><linearGradient id="linear-gradient-68" x1="3.74" y1="340.96" x2="826.76" y2="340.96" gradientUnits="userSpaceOnUse"><stop offset="0" stop-color="#5cbbeb"/><stop offset="0.16" stop-color="#63a7e4"/><stop offset="0.49" stop-color="#7473d3"/><stop offset="0.96" stop-color="#8f20b8"/><stop offset="1" stop-color="#9218b5"/></linearGradient><linearGradient id="linear-gradient-69" x1="-28.17" y1="265.09" x2="794.45" y2="265.09" xlink:href="#linear-gradient-68"/><linearGradient id="linear-gradient-70" x1="4.28" y1="373.67" x2="826.36" y2="373.67" xlink:href="#linear-gradient-68"/><linearGradient id="linear-gradient-71" x1="3.11" y1="325.89" x2="825.79" y2="325.89" gradientUnits="userSpaceOnUse"><stop offset="0" stop-color="#55c3ef"/><stop offset="0.15" stop-color="#5dafe8"/><stop offset="0.46" stop-color="#717bd6"/><stop offset="0.89" stop-color="#9129b9"/><stop offset="1" stop-color="#9914b2"/></linearGradient><linearGradient id="linear-gradient-72" x1="-28.79" y1="259.33" x2="794.04" y2="259.33" xlink:href="#linear-gradient-71"/><linearGradient id="linear-gradient-73" x1="2.18" y1="366.84" x2="825.95" y2="366.84" xlink:href="#linear-gradient-71"/><linearGradient id="linear-gradient-74" x1="2.49" y1="310.82" x2="825.9" y2="310.82" gradientUnits="userSpaceOnUse"><stop offset="0" stop-color="#4ecbf2"/><stop offset="0.14" stop-color="#57b7eb"/><stop offset="0.43" stop-color="#6d84d8"/><stop offset="0.84" stop-color="#9032bb"/><stop offset="1" stop-color="#9f10ae"/></linearGradient><linearGradient id="linear-gradient-75" x1="-29.42" y1="253.55" x2="793.63" y2="253.55" xlink:href="#linear-gradient-74"/><linearGradient id="linear-gradient-76" x1="2.13" y1="360.01" x2="825.54" y2="360.01" xlink:href="#linear-gradient-74"/><linearGradient id="linear-gradient-77" x1="1.87" y1="295.74" x2="824.71" y2="295.74" gradientUnits="userSpaceOnUse"><stop offset="0" stop-color="#46d3f5"/><stop offset="0.13" stop-color="#4fbfee"/><stop offset="0.41" stop-color="#688ddb"/><stop offset="0.79" stop-color="#8f3cbd"/><stop offset="1" stop-color="#a60cab"/></linearGradient><linearGradient id="linear-gradient-78" x1="-30.04" y1="247.72" x2="793.23" y2="247.72" xlink:href="#linear-gradient-77"/><linearGradient id="linear-gradient-79" x1="2.29" y1="353.18" x2="825.14" y2="353.18" xlink:href="#linear-gradient-77"/><linearGradient id="linear-gradient-80" x1="1.25" y1="280.67" x2="824.99" y2="280.67" gradientUnits="userSpaceOnUse"><stop offset="0" stop-color="#3fdaf8"/><stop offset="0.13" stop-color="#49c7f1"/><stop offset="0.38" stop-color="#6494dd"/><stop offset="0.75" stop-color="#8e44bf"/><stop offset="1" stop-color="#ad08a8"/></linearGradient><linearGradient id="linear-gradient-81" x1="-30.66" y1="241.85" x2="792.82" y2="241.85" xlink:href="#linear-gradient-80"/><linearGradient id="linear-gradient-82" x1="2.79" y1="346.36" x2="824.73" y2="346.36" xlink:href="#linear-gradient-80"/><linearGradient id="linear-gradient-83" x1="0.62" y1="265.6" x2="823.33" y2="265.6" gradientUnits="userSpaceOnUse"><stop offset="0" stop-color="#37e2fc"/><stop offset="0.12" stop-color="#42cff4"/><stop offset="0.36" stop-color="#5e9de1"/><stop offset="0.71" stop-color="#8a4dc1"/><stop offset="1" stop-color="#b304a4"/></linearGradient><linearGradient id="linear-gradient-84" x1="-31.28" y1="235.92" x2="792.41" y2="235.92" xlink:href="#linear-gradient-83"/><linearGradient id="linear-gradient-85" x1="-0.7" y1="339.53" x2="824.32" y2="339.53" xlink:href="#linear-gradient-83"/><linearGradient id="linear-gradient-86" y1="250.52" x2="823.92" y2="250.52" gradientUnits="userSpaceOnUse"><stop offset="0" stop-color="#30eaff"/><stop offset="0.11" stop-color="#3bd7f7"/><stop offset="0.35" stop-color="#59a5e3"/><stop offset="0.67" stop-color="#8756c3"/><stop offset="1" stop-color="#ba00a1"/></linearGradient><linearGradient id="linear-gradient-87" x1="-31.91" y1="229.94" x2="792.01" y2="229.94" xlink:href="#linear-gradient-86"/><linearGradient id="linear-gradient-88" y1="332.7" x2="823.92" y2="332.7" xlink:href="#linear-gradient-86"/></defs><g class="cls-2"><g id="BACKGROUND_01" data-name="BACKGROUND 01"><rect class="cls-3" x="31.91" y="68.54" width="750" height="500"/><g class="cls-4"><line class="cls-5" x1="18.93" y1="672.57" x2="18.93" y2="672.57"/><path class="cls-6" d="M-4.41,601.22C447,450.94,631.12,12.61,800.28,451.16" transform="translate(31.91 68.54)"/><line class="cls-7" x1="833.79" y1="523.9" x2="833.79" y2="523.9"/><line class="cls-8" x1="18.26" y1="657.49" x2="18.26" y2="657.49"/><path class="cls-9" d="M-5.31,586.18C444.12,434.38,626.22,29.85,799.84,444.47" transform="translate(31.91 68.54)"/><line class="cls-10" x1="833.44" y1="517.07" x2="833.44" y2="517.07"/><line class="cls-11" x1="17.59" y1="642.42" x2="17.59" y2="642.42"/><path class="cls-12" d="M-6.12,571.11c447.37-153.33,627.44-524,805.51-133.35" transform="translate(31.91 68.54)"/><line class="cls-13" x1="833.08" y1="510.24" x2="833.08" y2="510.24"/><line class="cls-14" x1="16.92" y1="627.35" x2="16.92" y2="627.35"/><path class="cls-15" d="M-7,556.06c445.36-154.87,623.41-491.69,805.94-125" transform="translate(31.91 68.54)"/><line class="cls-16" x1="832.72" y1="503.41" x2="832.72" y2="503.41"/><line class="cls-17" x1="16.25" y1="612.28" x2="16.25" y2="612.28"/><path class="cls-18" d="M-7.87,541C435.48,384.58,611.51,81.61,798.49,424.42" transform="translate(31.91 68.54)"/><line class="cls-19" x1="832.37" y1="496.59" x2="832.37" y2="496.59"/><line class="cls-20" x1="15.57" y1="597.2" x2="15.57" y2="597.2"/><path class="cls-21" d="M-8.66,525.94C432.61,367.94,606.6,98.88,798,417.72" transform="translate(31.91 68.54)"/><line class="cls-22" x1="832.01" y1="489.76" x2="832.01" y2="489.76"/><line class="cls-23" x1="14.9" y1="582.13" x2="14.9" y2="582.13"/><path class="cls-24" d="M-9.52,510.89C429.73,351.3,601.69,116.11,797.55,411.07" transform="translate(31.91 68.54)"/><line class="cls-25" x1="831.65" y1="482.93" x2="831.65" y2="482.93"/><line class="cls-26" x1="14.23" y1="567.06" x2="14.23" y2="567.06"/><path class="cls-27" d="M-10.42,495.86c437.26-161.2,607.2-362.54,807.52-91.41" transform="translate(31.91 68.54)"/><line class="cls-28" x1="831.29" y1="476.1" x2="831.29" y2="476.1"/><line class="cls-29" x1="13.56" y1="551.98" x2="13.56" y2="551.98"/><path class="cls-30" d="M-11.26,480.8C424,318,591.88,150.54,796.63,397.81" transform="translate(31.91 68.54)"/><line class="cls-31" x1="830.94" y1="469.27" x2="830.94" y2="469.27"/><line class="cls-32" x1="12.89" y1="536.91" x2="12.89" y2="536.91"/><path class="cls-33" d="M-12.09,465.75C421.09,301.3,587,167.76,796.15,391.19" transform="translate(31.91 68.54)"/><line class="cls-34" x1="830.58" y1="462.44" x2="830.58" y2="462.44"/><line class="cls-35" x1="12.22" y1="521.84" x2="12.22" y2="521.84"/><path class="cls-36" d="M-13,450.71c431.18-166.11,595-265.75,808.65-66.1" transform="translate(31.91 68.54)"/><line class="cls-37" x1="830.22" y1="455.61" x2="830.22" y2="455.61"/><line class="cls-38" x1="11.54" y1="506.76" x2="11.54" y2="506.76"/><path class="cls-39" d="M-13.81,435.67c429.17-167.79,591-233.52,809-57.63" transform="translate(31.91 68.54)"/><line class="cls-40" x1="829.87" y1="448.79" x2="829.87" y2="448.79"/><line class="cls-41" x1="10.87" y1="491.69" x2="10.87" y2="491.69"/><path class="cls-42" d="M-14.66,420.62C412.5,251.15,572.26,219.33,794.77,371.48" transform="translate(31.91 68.54)"/><line class="cls-43" x1="829.51" y1="441.96" x2="829.51" y2="441.96"/><line class="cls-44" x1="10.2" y1="476.62" x2="10.2" y2="476.62"/><path class="cls-45" d="M-15.49,405.57c425.14-171.18,582.86-169,809.82-40.63" transform="translate(31.91 68.54)"/><line class="cls-46" x1="829.15" y1="435.13" x2="829.15" y2="435.13"/><line class="cls-47" x1="9.53" y1="461.55" x2="9.53" y2="461.55"/><path class="cls-48" d="M-16.36,390.54C406.83,217.61,562.5,253.7,793.93,358.42" transform="translate(31.91 68.54)"/><line class="cls-49" x1="828.79" y1="428.3" x2="828.79" y2="428.3"/><line class="cls-50" x1="8.86" y1="446.47" x2="8.86" y2="446.47"/><path class="cls-51" d="M-17.21,375.5C404,200.81,557.63,270.9,793.54,351.91" transform="translate(31.91 68.54)"/><line class="cls-52" x1="828.44" y1="421.47" x2="828.44" y2="421.47"/><line class="cls-53" x1="8.19" y1="431.4" x2="8.19" y2="431.4"/><path class="cls-54" d="M-18.08,360.48C401.22,184,552.77,288.12,793.2,345.4" transform="translate(31.91 68.54)"/><line class="cls-55" x1="828.08" y1="414.64" x2="828.08" y2="414.64"/><line class="cls-56" x1="7.51" y1="416.33" x2="7.51" y2="416.33"/><path class="cls-57" d="M-18.9,345.43c417.34-178.28,566.82-40.07,811.76-6.55" transform="translate(31.91 68.54)"/><line class="cls-58" x1="827.72" y1="407.81" x2="827.72" y2="407.81"/><line class="cls-59" x1="6.84" y1="401.25" x2="6.84" y2="401.25"/><path class="cls-60" d="M-19.78,330.41c415.46-180.15,562.86-7.76,812.36,1.93" transform="translate(31.91 68.54)"/><line class="cls-61" x1="827.36" y1="400.99" x2="827.36" y2="400.99"/><line class="cls-62" x1="6.17" y1="386.18" x2="6.17" y2="386.18"/><path class="cls-63" d="M-20.6,315.37c413.53-182,558.84,24.59,812.9,10.41" transform="translate(31.91 68.54)"/><line class="cls-64" x1="827.01" y1="394.16" x2="827.01" y2="394.16"/><line class="cls-65" x1="5.5" y1="371.11" x2="5.5" y2="371.11"/><path class="cls-66" d="M-21.44,300.34c411.63-183.87,554.85,57,813.49,18.86" transform="translate(31.91 68.54)"/><line class="cls-67" x1="826.65" y1="387.33" x2="826.65" y2="387.33"/><line class="cls-68" x1="4.83" y1="356.04" x2="4.83" y2="356.04"/><path class="cls-69" d="M-22.3,285.31c409.76-185.78,550.88,89.42,814.13,27.26" transform="translate(31.91 68.54)"/><line class="cls-70" x1="826.29" y1="380.5" x2="826.29" y2="380.5"/><line class="cls-71" x1="4.16" y1="340.96" x2="4.16" y2="340.96"/><path class="cls-72" d="M-23.16,270.3C384.72,82.57,523.75,392.18,791.62,305.92" transform="translate(31.91 68.54)"/><line class="cls-73" x1="825.94" y1="373.67" x2="825.94" y2="373.67"/><line class="cls-74" x1="3.48" y1="325.89" x2="3.48" y2="325.89"/><path class="cls-75" d="M-24,255.27c406-189.68,542.92,154.39,815.41,44" transform="translate(31.91 68.54)"/><line class="cls-76" x1="825.58" y1="366.84" x2="825.58" y2="366.84"/><line class="cls-77" x1="2.81" y1="310.82" x2="2.81" y2="310.82"/><path class="cls-78" d="M-24.83,240.24c404.08-191.62,538.91,186.92,816,52.28" transform="translate(31.91 68.54)"/><line class="cls-79" x1="825.22" y1="360.01" x2="825.22" y2="360.01"/><line class="cls-80" x1="2.14" y1="295.74" x2="2.14" y2="295.74"/><path class="cls-81" d="M-25.68,225.22C376.51,31.61,509.23,444.71,791,285.77" transform="translate(31.91 68.54)"/><line class="cls-82" x1="824.86" y1="353.18" x2="824.86" y2="353.18"/><line class="cls-83" x1="1.47" y1="280.67" x2="1.47" y2="280.67"/><path class="cls-84" d="M-26.54,210.21C373.77,14.58,504.38,462.28,790.77,279" transform="translate(31.91 68.54)"/><line class="cls-85" x1="824.51" y1="346.36" x2="824.51" y2="346.36"/><line class="cls-86" x1="0.8" y1="265.6" x2="0.8" y2="265.6"/><path class="cls-87" d="M-27.37,195.19C371-2.45,499.52,479.86,790.54,272.21" transform="translate(31.91 68.54)"/><line class="cls-88" x1="824.15" y1="339.53" x2="824.15" y2="339.53"/><line class="cls-89" x1="0.13" y1="250.52" x2="0.13" y2="250.52"/><path class="cls-90" d="M-28.21,180.17C368.27-19.51,494.66,497.47,790.31,265.4" transform="translate(31.91 68.54)"/><line class="cls-91" x1="823.79" y1="332.7" x2="823.79" y2="332.7"/><g class="cls-92"><path class="cls-93" d="M273.22,529.41s296-281.5,487-126" transform="translate(31.91 68.54)"/><path class="cls-94" d="M273.61,532.66S567.29,254.14,760.25,410.74" transform="translate(31.91 68.54)"/><path class="cls-95" d="M274,535.91S565.36,260.37,760.25,418.1" transform="translate(31.91 68.54)"/><path class="cls-96" d="M274.4,539.16s289-272.56,485.85-113.7" transform="translate(31.91 68.54)"/><path class="cls-97" d="M274.79,542.41S561.5,272.83,760.25,432.82" transform="translate(31.91 68.54)"/><path class="cls-98" d="M275.18,545.66s284.4-266.6,485.07-105.48" transform="translate(31.91 68.54)"/><path class="cls-99" d="M275.58,548.91S557.65,285.29,760.25,447.54" transform="translate(31.91 68.54)"/><path class="cls-100" d="M276,552.16S555.72,291.52,760.25,454.9" transform="translate(31.91 68.54)"/><path class="cls-101" d="M276.36,555.41s277.43-257.66,483.89-93.15" transform="translate(31.91 68.54)"/><path class="cls-102" d="M276.75,558.66s275.11-254.68,483.5-89" transform="translate(31.91 68.54)"/><path class="cls-103" d="M277.15,561.91S549.93,310.21,760.25,477" transform="translate(31.91 68.54)"/><path class="cls-104" d="M277.54,565.16S548,316.45,760.25,484.35" transform="translate(31.91 68.54)"/><path class="cls-105" d="M277.93,568.41s268.15-245.73,482.32-76.7" transform="translate(31.91 68.54)"/><path class="cls-106" d="M278.33,571.66s265.82-242.75,481.92-72.59" transform="translate(31.91 68.54)"/><path class="cls-107" d="M278.72,574.91s263.5-239.77,481.53-68.48" transform="translate(31.91 68.54)"/></g><g class="cls-92"><path class="cls-93" d="M484.09-21.92S181.43,252.41-5.82,92.42" transform="translate(31.91 68.54)"/><path class="cls-94" d="M483.77-25.18S183.51,246.23-5.65,85.06" transform="translate(31.91 68.54)"/><path class="cls-95" d="M483.46-28.44S185.58,240.05-5.47,77.7" transform="translate(31.91 68.54)"/><path class="cls-96" d="M483.14-31.69S187.66,233.86-5.29,70.34" transform="translate(31.91 68.54)"/><path class="cls-97" d="M482.83-34.95S189.74,227.68-5.12,63" transform="translate(31.91 68.54)"/><path class="cls-98" d="M482.51-38.21S191.82,221.5-4.94,55.62" transform="translate(31.91 68.54)"/><path class="cls-99" d="M482.2-41.47S193.89,215.32-4.76,48.26" transform="translate(31.91 68.54)"/><path class="cls-100" d="M481.88-44.73S196,209.13-4.59,40.9" transform="translate(31.91 68.54)"/><path class="cls-101" d="M481.57-48S198.05,203-4.41,33.54" transform="translate(31.91 68.54)"/><path class="cls-102" d="M481.25-51.25S200.12,196.77-4.24,26.19" transform="translate(31.91 68.54)"/><path class="cls-103" d="M480.94-54.5S202.2,190.59-4.06,18.83" transform="translate(31.91 68.54)"/><path class="cls-104" d="M480.62-57.76S204.28,184.4-3.88,11.47" transform="translate(31.91 68.54)"/><path class="cls-105" d="M480.31-61S206.36,178.22-3.71,4.11" transform="translate(31.91 68.54)"/><path class="cls-106" d="M480-64.28S208.43,172-3.53-3.25" transform="translate(31.91 68.54)"/><path class="cls-107" d="M479.68-67.54s-269.17,233.4-483,56.93" transform="translate(31.91 68.54)"/></g></g></g></g></svg>