<?xml version="1.0" encoding="utf-8"?>
<!-- Generator: Adobe Illustrator 21.1.0, SVG Export Plug-In . SVG Version: 6.00 Build 0)  -->
<svg version="1.1" id="Layer_1_1_" xmlns="http://www.w3.org/2000/svg" xmlns:xlink="http://www.w3.org/1999/xlink" x="0px" y="0px"
	 viewBox="0 0 512 512" style="enable-background:new 0 0 512 512;" xml:space="preserve">
<style type="text/css">
	.st0{fill:#E58842;}
	.st1{fill:#6C253D;}
	.st2{fill:#69BFF9;}
	.st3{fill:#2746B7;}
	.st4{fill:#F9F1E4;}
	.st5{fill:#FFFFFF;}
</style>
<path class="st0" d="M248,312h16v152h-16V312z"/>
<path class="st0" d="M336,464h-16v-36.7l-24-24V312h16v84.7l24,24V464z"/>
<path class="st0" d="M408,464h-16v-36.7l-40-40V312h16v68.7l40,40V464z"/>
<path class="st0" d="M472,464h-16v-36.7l-56-56V312h16v52.7l56,56V464z"/>
<path class="st0" d="M192,464h-16v-43.3l24-24V312h16v91.3l-24,24V464z"/>
<path class="st0" d="M120,464h-16v-43.3l40-40V312h16v75.3l-40,40V464z"/>
<path class="st0" d="M56,464H40v-43.3l56-56V312h16v59.3l-56,56V464z"/>
<path class="st1" d="M96,312h16v32H96V312z"/>
<path class="st1" d="M144,312h16v32h-16V312z"/>
<path class="st1" d="M200,312h16v32h-16V312z"/>
<path class="st1" d="M248,312h16v32h-16V312z"/>
<path class="st1" d="M296,312h16v32h-16V312z"/>
<path class="st1" d="M352,312h16v32h-16V312z"/>
<path class="st1" d="M400,312h16v32h-16V312z"/>
<path class="st0" d="M456,480h16v16h-16V480z"/>
<path class="st0" d="M392,480h16v16h-16V480z"/>
<path class="st0" d="M320,480h16v16h-16V480z"/>
<path class="st0" d="M40,480h16v16H40V480z"/>
<path class="st0" d="M104,480h16v16h-16V480z"/>
<path class="st0" d="M176,480h16v16h-16V480z"/>
<path class="st0" d="M248,480h16v16h-16V480z"/>
<path class="st2" d="M400,152c48.6,0,88,39.4,88,88s-39.4,88-88,88H120c-53,0-96-43-96-96c0-51,39.8-92.6,90.1-95.7
	c-1.4-6.6-2.1-13.4-2.1-20.3c0-55.2,44.8-100,100-100s100,44.8,100,100c0,1.7-0.2,3.3-0.2,4.9c2.6-0.6,5.4-0.9,8.2-0.9
	c22.1,0,40,17.9,40,40c0,0.6-0.2,1.2-0.2,1.8C371.8,155.6,385.5,152,400,152z"/>
<path class="st3" d="M192,160h128v128H192V160z"/>
<path class="st4" d="M229.3,67c-5.6-2-11.4-3-17.3-3V48c7.8,0,15.4,1.3,22.7,3.9L229.3,67z"/>
<path class="st4" d="M160,116h-16c0-28.7,18.2-54.5,45.3-64.1l5.3,15.1C173.9,74.3,160,94,160,116z"/>
<g>
	<path class="st5" d="M216,184h16v16h-16V184z"/>
	<path class="st5" d="M216,216h16v16h-16V216z"/>
	<path class="st5" d="M216,248h16v16h-16V248z"/>
	<path class="st5" d="M248,184h16v16h-16V184z"/>
	<path class="st5" d="M248,216h16v16h-16V216z"/>
	<path class="st5" d="M248,248h16v16h-16V248z"/>
	<path class="st5" d="M280,184h16v16h-16V184z"/>
	<path class="st5" d="M280,216h16v16h-16V216z"/>
	<path class="st5" d="M280,248h16v16h-16V248z"/>
</g>
</svg>
