<svg id="Layer_1" enable-background="new 0 0 256 256" height="512" viewBox="0 0 256 256" width="512" xmlns="http://www.w3.org/2000/svg"><path d="m48.333 219h159.333v11.5h-159.333z"/><path d="m184.659 62.651h-113.818c-3.226 0-5.841-2.615-5.841-5.841 0-3.226 2.615-5.841 5.841-5.841h113.818c3.226 0 5.841 2.615 5.841 5.841 0 3.226-2.615 5.841-5.841 5.841z" fill="#000000"/><path d="m234.763 199.719-22.987-22.987c-2.854-2.853-2.889-7.458-.106-10.355-.045.043-.091.087-.135.132l-5.231 5.232c-2.889 2.889-2.889 7.574 0 10.464l22.987 22.987c2.89 2.89 7.575 2.89 10.464 0l5.231-5.231c.036-.036.07-.072.105-.108-2.899 2.755-7.483 2.711-10.328-.134z" fill="#000000"/><g fill="#000000"><path d="m207.667 199c-1.381 0-2.5 1.119-2.5 2.5v26.5h-154.334v-198h154.333v46.5c0 1.381 1.119 2.5 2.5 2.5s2.5-1.119 2.5-2.5v-49c0-1.381-1.119-2.5-2.5-2.5h-159.333c-1.381 0-2.5 1.119-2.5 2.5v203c0 1.381 1.119 2.5 2.5 2.5h159.333c1.381 0 2.5-1.119 2.5-2.5v-29c.001-1.381-1.119-2.5-2.499-2.5z"/><path d="m68.571 182.966h58.05c1.381 0 2.5-1.119 2.5-2.5s-1.119-2.5-2.5-2.5h-58.05c-1.381 0-2.5 1.119-2.5 2.5s1.119 2.5 2.5 2.5z"/><path d="m129.122 193.667c0-1.381-1.119-2.5-2.5-2.5h-58.05c-1.381 0-2.5 1.119-2.5 2.5s1.119 2.5 2.5 2.5h58.05c1.38 0 2.5-1.12 2.5-2.5z"/><path d="m68.571 204.367c-1.381 0-2.5 1.119-2.5 2.5s1.119 2.5 2.5 2.5h26.857c1.381 0 2.5-1.119 2.5-2.5s-1.119-2.5-2.5-2.5z"/><path d="m187.455 193.667c0-1.381-1.119-2.5-2.5-2.5h-48.05c-1.381 0-2.5 1.119-2.5 2.5s1.119 2.5 2.5 2.5h48.05c1.381 0 2.5-1.12 2.5-2.5z"/><path d="m105.571 209.367h26.857c1.381 0 2.5-1.119 2.5-2.5s-1.119-2.5-2.5-2.5h-26.857c-1.381 0-2.5 1.119-2.5 2.5s1.119 2.5 2.5 2.5z"/><path d="m143.738 204.367c-1.381 0-2.5 1.119-2.5 2.5s1.119 2.5 2.5 2.5h26.857c1.381 0 2.5-1.119 2.5-2.5s-1.119-2.5-2.5-2.5z"/><path d="m68.571 132.3h26.857c1.381 0 2.5-1.119 2.5-2.5s-1.119-2.5-2.5-2.5h-26.857c-1.381 0-2.5 1.119-2.5 2.5s1.119 2.5 2.5 2.5z"/><path d="m68.571 145.5h26.857c1.381 0 2.5-1.119 2.5-2.5s-1.119-2.5-2.5-2.5h-26.857c-1.381 0-2.5 1.119-2.5 2.5s1.119 2.5 2.5 2.5z"/><path d="m68.571 158.7h41.429c1.381 0 2.5-1.119 2.5-2.5s-1.119-2.5-2.5-2.5h-41.429c-1.381 0-2.5 1.119-2.5 2.5s1.119 2.5 2.5 2.5z"/><path d="m68.571 94.833h40.095c1.381 0 2.5-1.119 2.5-2.5s-1.119-2.5-2.5-2.5h-40.095c-1.381 0-2.5 1.119-2.5 2.5s1.119 2.5 2.5 2.5z"/><path d="m68.571 108.034h37.095c1.381 0 2.5-1.119 2.5-2.5s-1.119-2.5-2.5-2.5h-37.095c-1.381 0-2.5 1.119-2.5 2.5s1.119 2.5 2.5 2.5z"/><path d="m246.753 187.728-22.987-22.986c-1.87-1.87-4.355-2.899-7-2.899-2.644 0-5.13 1.029-7 2.899l-5.23 5.232c-1.87 1.869-2.899 4.355-2.899 7 0 2.644 1.03 5.13 2.899 6.999l22.987 22.987c1.87 1.87 4.355 2.899 7 2.899 2.644 0 5.13-1.03 7-2.9l5.23-5.231c3.86-3.86 3.86-10.14 0-14zm-3.535 10.464-5.23 5.231c-.926.925-2.156 1.435-3.465 1.435s-2.539-.509-3.464-1.435l-22.987-22.987c-.925-.925-1.435-2.156-1.435-3.464s.509-2.539 1.435-3.464l5.23-5.232c.956-.955 2.21-1.433 3.464-1.433 1.255 0 2.51.478 3.465 1.433l22.987 22.986c1.91 1.912 1.91 5.02 0 6.93z"/><path d="m164.619 71.147c-29.598 0-53.677 24.08-53.677 53.677s24.08 53.677 53.677 53.677c10.934 0 21.367-3.232 30.309-9.37l1.846 1.846c.976.977 2.56.977 3.535 0 .977-.976.977-2.559 0-3.535l-3.345-3.345c-.878-.879-2.269-.979-3.263-.236-8.451 6.306-18.507 9.64-29.083 9.64-26.841 0-48.677-21.836-48.677-48.677s21.836-48.677 48.677-48.677 48.677 21.836 48.677 48.677c0 10.576-3.333 20.632-9.64 29.083-.743.995-.643 2.385.235 3.263l3.344 3.345c.977.977 2.559.976 3.536 0 .977-.977.977-2.559 0-3.536l-1.846-1.846c6.137-8.942 9.37-19.375 9.37-30.309.002-29.597-24.077-53.677-53.675-53.677z"/><path d="m164.619 84.328c-22.331 0-40.498 18.167-40.498 40.497 0 22.331 18.167 40.498 40.498 40.498s40.498-18.167 40.498-40.498c0-22.33-18.167-40.497-40.498-40.497zm0 75.994c-19.573 0-35.498-15.924-35.498-35.498s15.924-35.497 35.498-35.497 35.498 15.924 35.498 35.497-15.925 35.498-35.498 35.498z"/></g><path d="m185.472 108.189c-4.151 0-7.529 3.377-7.529 7.528 0 1.164.273 2.262.747 3.247l-7.836 7.836c-.989-.478-2.093-.754-3.263-.754-1.161 0-2.256.272-3.239.743l-1.656-1.656c.473-.984.746-2.082.746-3.245 0-4.151-3.377-7.528-7.528-7.528s-7.528 3.377-7.528 7.528c0 1.137.261 2.212.714 3.179l-2.084 2.084c-.985-.473-2.083-.746-3.247-.746-4.151 0-7.529 3.377-7.529 7.528s3.377 7.529 7.529 7.529 7.528-3.377 7.528-7.529c0-1.164-.273-2.262-.746-3.247l2.049-2.049c1.002.494 2.124.779 3.315.779 1.164 0 2.263-.273 3.248-.747l1.651 1.651c-.476.987-.75 2.088-.75 3.255 0 4.151 3.377 7.528 7.528 7.528s7.528-3.377 7.528-7.528c0-1.157-.27-2.25-.738-3.23l7.845-7.845c.985.473 2.083.746 3.247.746 4.151 0 7.528-3.377 7.528-7.528s-3.379-7.529-7.53-7.529zm-41.705 28.272c-1.395 0-2.529-1.134-2.529-2.529 0-1.394 1.134-2.528 2.529-2.528.637 0 1.212.244 1.657.634.037.043.066.09.107.13.041.041.088.069.13.107.39.445.634 1.021.634 1.657 0 1.395-1.134 2.529-2.528 2.529zm9.617-14.574c0-1.394 1.134-2.528 2.528-2.528s2.528 1.134 2.528 2.528-1.134 2.528-2.528 2.528-2.528-1.134-2.528-2.528zm14.206 14.216c-1.394 0-2.528-1.134-2.528-2.528s1.134-2.528 2.528-2.528 2.528 1.134 2.528 2.528-1.134 2.528-2.528 2.528zm17.882-17.857c-1.395 0-2.529-1.134-2.529-2.528s1.134-2.528 2.529-2.528c1.394 0 2.528 1.134 2.528 2.528s-1.134 2.528-2.528 2.528z" fill="#000000"/></svg>