<?xml version="1.0" encoding="utf-8"?>
<!-- Generator: Adobe Illustrator 21.1.0, SVG Export Plug-In . SVG Version: 6.00 Build 0)  -->
<svg version="1.1" id="Layer_1" xmlns="http://www.w3.org/2000/svg" xmlns:xlink="http://www.w3.org/1999/xlink" x="0px" y="0px"
	 viewBox="0 0 512 512" style="enable-background:new 0 0 512 512;" xml:space="preserve">
<style type="text/css">
	.st0{fill:#FFE09F;}
	.st1{fill:#F6D190;}
	.st2{fill:#ECEAEC;}
	.st3{fill:#DAD8DB;}
	.st4{fill:#5297E2;}
	.st5{fill:#5D5360;}
	.st6{fill:#857E87;}
	.st7{fill:#FFFFFF;}
</style>
<path class="st0" d="M387.8,421.2H74V8.3C74,3.7,77.7,0,82.3,0h297.3c4.6,0,8.3,3.7,8.3,8.3V421.2z"/>
<path class="st1" d="M366.5,95.7l-74.3-74.3c-3.1-3.1-7.3-4.8-11.7-4.8H74v404.6h297.3V107.4C371.3,103,369.6,98.8,366.5,95.7z"/>
<path class="st2" d="M354.8,445.9H49.3c-4.6,0-8.3-3.7-8.3-8.3V41.3c0-4.6,3.7-8.3,8.3-8.3h231.2c29,29,45.3,45.3,74.3,74.3V445.9z"
	/>
<path class="st3" d="M280.5,33v66.1c0,4.6,3.7,8.3,8.3,8.3h66.1L280.5,33z"/>
<path class="st4" d="M247.5,115.6h-99.1c-4.6,0-8.3-3.7-8.3-8.3s3.7-8.3,8.3-8.3h99.1c4.6,0,8.3,3.7,8.3,8.3S252,115.6,247.5,115.6z
	"/>
<g>
	<path class="st5" d="M297,165.2H98.8c-4.6,0-8.3-3.7-8.3-8.3c0-4.6,3.7-8.3,8.3-8.3H297c4.6,0,8.3,3.7,8.3,8.3
		C305.3,161.5,301.6,165.2,297,165.2z"/>
	<path class="st5" d="M297,231.2H98.8c-4.6,0-8.3-3.7-8.3-8.3c0-4.6,3.7-8.3,8.3-8.3H297c4.6,0,8.3,3.7,8.3,8.3
		C305.3,227.5,301.6,231.2,297,231.2z"/>
	<path class="st5" d="M297,198.2H98.8c-4.6,0-8.3-3.7-8.3-8.3c0-4.6,3.7-8.3,8.3-8.3H297c4.6,0,8.3,3.7,8.3,8.3
		C305.3,194.5,301.6,198.2,297,198.2z"/>
</g>
<path class="st6" d="M189.6,289H98.8c-4.6,0-8.3-3.7-8.3-8.3c0-4.6,3.7-8.3,8.3-8.3h90.8c4.6,0,8.3,3.7,8.3,8.3
	C197.9,285.3,194.2,289,189.6,289z"/>
<path class="st6" d="M189.6,322.1H98.8c-4.6,0-8.3-3.7-8.3-8.3c0-4.6,3.7-8.3,8.3-8.3h90.8c4.6,0,8.3,3.7,8.3,8.3
	C197.9,318.4,194.2,322.1,189.6,322.1z"/>
<path class="st4" d="M470.4,412.9c0,54.7-44.4,99.1-99.1,99.1s-99.1-44.4-99.1-99.1s44.4-99.1,99.1-99.1S470.4,358.2,470.4,412.9z"
	/>
<path class="st7" d="M371.3,470.7c-31.9,0-57.8-25.9-57.8-57.8s25.9-57.8,57.8-57.8c16.3,0,32,7,43,19.3c3,3.4,2.8,8.6-0.6,11.7
	c-3.4,3-8.6,2.8-11.7-0.6c-7.9-8.8-19-13.8-30.7-13.8c-22.8,0-41.3,18.5-41.3,41.3c0,22.8,18.5,41.3,41.3,41.3
	c11.7,0,22.9-5,30.7-13.8c3.1-3.4,8.3-3.7,11.7-0.6c3.4,3,3.7,8.3,0.6,11.7C403.3,463.7,387.7,470.7,371.3,470.7z"/>
<path class="st4" d="M383.7,499.6c-54.7,0-99.1-44.4-99.1-99.1c0-24.2,8.7-46.4,23.1-63.6c-21.7,18.2-35.5,45.5-35.5,76
	c0,54.7,44.4,99.1,99.1,99.1c30.5,0,57.8-13.8,76-35.5C430.1,490.9,407.9,499.6,383.7,499.6z"/>
</svg>
