<?xml version="1.0" encoding="utf-8"?>
<!-- Generator: Adobe Illustrator 16.0.0, SVG Export Plug-In . SVG Version: 6.00 Build 0)  -->
<!DOCTYPE svg PUBLIC "-//W3C//DTD SVG 1.1//EN" "http://www.w3.org/Graphics/SVG/1.1/DTD/svg11.dtd">
<svg version="1.1" id="Layer_1" xmlns="http://www.w3.org/2000/svg" xmlns:xlink="http://www.w3.org/1999/xlink" x="0px" y="0px"
	 width="200px" height="200px" viewBox="0 0 200 200" enable-background="new 0 0 200 200" xml:space="preserve">
<g>
	<path fill="#FFFFFF" stroke="#FFFFFF" stroke-width="3" stroke-miterlimit="10" d="M83.483,91.633v-0.942
		c0-12.743-0.002-25.488,0.001-38.231c0.002-3.962,2.581-7.114,6.437-7.783c2.463-0.427,4.654,0.247,6.524,1.923
		c0.156,0.139,0.31,0.281,0.466,0.42c0.014,0.013,0.037,0.016,0.128,0.052c0.055-0.392,0.104-0.769,0.162-1.146
		c0.616-3.981,4.055-6.704,8.211-6.505c3.798,0.182,6.956,3.354,7.165,7.237c0.055,1.042,0.009,2.088,0.009,3.281
		c0.244-0.194,0.371-0.279,0.48-0.38c2.485-2.282,5.348-2.895,8.441-1.587c3.131,1.323,4.69,3.854,4.724,7.24
		c0.047,4.808,0.012,9.615,0.012,14.424v0.804c0.202-0.164,0.327-0.251,0.433-0.355c2.301-2.228,5.547-2.858,8.449-1.638
		c2.876,1.21,4.735,4.032,4.735,7.193c0.001,9.301-0.014,18.601,0.005,27.902c0.011,5.849-1.459,11.278-4.456,16.303
		c-1.268,2.127-2.498,4.274-3.73,6.423c-1.245,2.173-1.894,4.515-1.886,7.028c0.004,1.071,0.012,2.141-0.006,3.212
		c-0.006,0.35,0.09,0.504,0.464,0.587c1.428,0.317,2.302,1.422,2.311,2.897c0.014,2.183,0.014,4.365,0,6.552
		c-0.013,1.782-1.237,2.986-3.029,2.986c-13.709,0.003-27.421,0.002-41.13-0.001c-1.892,0-3.053-1.164-3.06-3.065
		c-0.007-2.12-0.007-4.24,0-6.36c0.005-1.715,0.857-2.722,2.54-3.087c0.181-0.039,0.456-0.275,0.458-0.422
		c0.019-1.995,0.024-3.988-0.021-5.984c-0.024-1.049-0.452-1.986-1.023-2.864c-6.978-10.73-13.954-21.466-20.922-32.201
		c-2.126-3.277-1.447-7.343,1.584-9.602c2.531-1.887,6.001-1.833,8.543,0.159c2.081,1.632,4.142,3.291,6.212,4.937
		C82.92,91.199,83.131,91.36,83.483,91.633 M96.653,102.332c-1.824-2.151-3.781-4.48-5.765-6.79
		c-0.424-0.492-0.604-1.002-0.604-1.653c0.015-11.001,0.01-22.004,0.01-33.007c0-0.147-0.007-0.294,0.003-0.441
		c0.036-0.542,0.413-0.93,0.909-0.942c0.524-0.016,0.929,0.377,0.952,0.956c0.018,0.482,0.004,0.966,0.004,1.448
		c0,10.498-0.002,20.996,0.01,31.495c0.001,0.333,0.062,0.747,0.26,0.986c1.888,2.278,3.809,4.531,5.736,6.777
		c0.125,0.15,0.375,0.267,0.566,0.27c1.428,0.014,2.855-0.008,4.282-0.016c0.887-0.003,0.887-0.001,0.887-0.876
		c0-15.307,0-30.613,0.004-45.92c0-0.27-0.005-0.553,0.07-0.808c0.139-0.458,0.493-0.675,0.967-0.629
		c0.474,0.045,0.765,0.321,0.821,0.805c0.022,0.187,0.016,0.376,0.016,0.565c0.001,15.203,0,30.404,0,45.606
		c0,0.23,0.019,0.463-0.003,0.692c-0.039,0.438,0.141,0.575,0.58,0.572c2.729-0.017,5.459-0.015,8.189,0.002
		c0.407,0.003,0.585-0.143,0.709-0.524c0.527-1.615,1.022-3.244,1.653-4.82c0.571-1.421,0.736-2.866,0.666-4.369
		c-0.041-0.86-0.032-1.721-0.035-2.582c-0.01-8.798-0.015-17.596-0.021-26.393c-0.002-0.735-0.014-1.471,0.007-2.205
		c0.017-0.631,0.406-1.032,0.953-1.03c0.545,0.003,0.926,0.417,0.947,1.045c0.008,0.252-0.021,0.503-0.021,0.755
		c-0.02,10.665-0.047,21.332-0.048,31.998c0,1.002-0.137,1.942-0.488,2.885c-0.571,1.531-1.046,3.1-1.605,4.637
		c-0.219,0.595-0.352,1.078,0.325,1.475c0.231,0.135,0.444,0.434,0.511,0.697c0.165,0.661,0.275,1.34,0.342,2.021
		c0.053,0.561,0.01,1.132,0.01,1.835c0.223-0.196,0.305-0.261,0.377-0.333c3.982-4.121,7.969-8.24,11.935-12.376
		c0.2-0.209,0.315-0.589,0.317-0.889c0.018-4.515,0.015-9.03,0.017-13.543c0-0.23-0.015-0.465,0.022-0.691
		c0.076-0.478,0.527-0.807,1.003-0.76c0.554,0.053,0.849,0.451,0.849,1.187c0.003,4.809,0.016,9.617-0.022,14.424
		c-0.006,0.447-0.245,0.994-0.559,1.322c-4.471,4.671-8.97,9.316-13.472,13.956c-0.329,0.34-0.479,0.679-0.476,1.159
		c0.021,3.149,0.012,6.301,0.011,9.449c0,2.242-0.945,3.254-3.188,3.422c-0.061,0.006-0.121,0.032-0.214,0.058v13.701h12.824
		c0-1.063,0.006-2.068-0.002-3.073c-0.021-3.224,0.744-6.228,2.415-9c1.083-1.798,2.083-3.646,3.174-5.436
		c2.836-4.651,4.472-9.656,4.483-15.132c0.021-9.552,0.01-19.106-0.006-28.66c0-0.58-0.078-1.179-0.24-1.734
		c-0.812-2.768-3.575-4.525-6.421-4.123c-2.85,0.401-5.014,2.835-5.028,5.735c-0.023,4.662-0.007,9.322-0.009,13.984
		c0,0.229,0.007,0.465-0.039,0.688c-0.098,0.5-0.416,0.762-0.929,0.762c-0.522,0-0.815-0.3-0.914-0.786
		c-0.044-0.223-0.024-0.46-0.024-0.69c0-11.295,0-22.593,0-33.887c0-0.336,0.004-0.674-0.019-1.008
		c-0.21-3.284-3.459-5.85-6.7-5.297c-3.02,0.517-5.008,2.883-5.009,6.016c-0.008,11.317-0.004,22.635-0.005,33.952
		c0,0.252,0.009,0.504-0.019,0.754c-0.057,0.544-0.379,0.835-0.919,0.835c-0.543,0-0.855-0.305-0.935-0.832
		c-0.03-0.206-0.014-0.418-0.014-0.628c0-13.795,0-27.59,0-41.385c0-0.399,0.007-0.799-0.011-1.198
		c-0.121-2.908-2.642-5.407-5.555-5.507c-3.478-0.12-6.17,2.511-6.17,6.042c-0.002,14.025-0.001,28.052-0.001,42.077
		c0,0.252,0.01,0.507-0.025,0.754c-0.073,0.511-0.391,0.776-0.901,0.786c-0.516,0.009-0.833-0.268-0.932-0.76
		c-0.049-0.244-0.027-0.503-0.027-0.754c0-12.304,0.002-24.608-0.007-36.912c0-0.561-0.05-1.139-0.187-1.681
		c-0.726-2.847-3.537-4.752-6.379-4.364c-3.013,0.413-5.162,2.888-5.164,5.957c0,14.277,0,28.555,0,42.834
		c0,0.271,0.016,0.547-0.019,0.817c-0.065,0.513-0.384,0.785-0.893,0.796c-0.507,0.014-0.832-0.248-0.943-0.746
		c-0.032-0.142-0.047-0.298-0.02-0.439c0.229-1.197-0.306-1.942-1.259-2.654c-2.353-1.757-4.6-3.658-6.923-5.456
		c-2.472-1.913-5.928-1.318-7.509,1.302c-1.233,2.042-0.908,4.002,0.37,5.958c6.953,10.648,13.872,21.318,20.801,31.982
		c0.857,1.321,1.28,2.771,1.276,4.345c-0.004,1.701-0.002,3.4,0,5.102c0,0.223,0.018,0.444,0.027,0.653h9.396v-13.697
		c-0.109-0.026-0.17-0.053-0.231-0.055c-2.208-0.146-3.185-1.199-3.184-3.432c0-2.331-0.016-4.662,0.013-6.991
		c0.006-0.524-0.143-0.767-0.665-0.925c-3.27-0.995-6.534-2.013-9.784-3.066c-0.468-0.153-0.95-0.475-1.268-0.849
		c-2.876-3.423-5.719-6.875-8.572-10.318c-0.59-0.711-1.19-1.412-1.76-2.139c-0.333-0.428-0.271-0.99,0.091-1.313
		c0.403-0.358,0.934-0.327,1.348,0.098c0.19,0.195,0.356,0.415,0.531,0.624c3.2,3.864,6.396,7.733,9.611,11.584
		c0.226,0.271,0.566,0.509,0.902,0.615c2.975,0.958,5.959,1.882,8.941,2.812c0.173,0.056,0.353,0.093,0.615,0.162
		c0-0.302,0-0.526,0-0.753c-0.001-1.448-0.042-2.898,0.014-4.345C96.3,104.139,96.496,103.349,96.653,102.332 M108.988,147.66
		v-0.003c6.8,0,13.6,0,20.4-0.003c0.904,0,1.276-0.348,1.283-1.246c0.015-2.1,0.016-4.198-0.002-6.298
		c-0.007-0.858-0.389-1.214-1.251-1.214c-13.642-0.003-27.282-0.001-40.925,0c-0.932,0-1.274,0.359-1.275,1.312
		c-0.004,2.016-0.001,4.029,0,6.045c0.001,1.096,0.317,1.406,1.435,1.408C95.43,147.66,102.211,147.66,108.988,147.66
		 M107.408,121.288c2.561,0,5.12,0.003,7.682,0c1.137-0.002,1.476-0.328,1.479-1.453c0.004-5.017,0.004-10.032,0.001-15.05
		c0-1.186-0.321-1.502-1.49-1.502c-5.163-0.002-10.327-0.002-15.491,0c-1.106,0-1.428,0.319-1.429,1.419
		c-0.001,5.035-0.001,10.074,0,15.111c0,1.175,0.3,1.472,1.503,1.472C102.244,121.291,104.825,121.288,107.408,121.288
		 M101.621,136.93h4.752v-13.719h-4.752V136.93z M113.057,123.201h-4.717v13.745h4.717V123.201z"/>
	<polyline fill="none" stroke="#FFFFFF" stroke-width="3" stroke-linecap="round" stroke-miterlimit="10" points="52.235,84.601 
		52.235,96.196 60.696,99.957 60.696,109.357 70.412,113.745 	"/>
	<polyline fill="none" stroke="#FFFFFF" stroke-width="3" stroke-linecap="round" stroke-miterlimit="10" points="45.432,88.793 
		45.432,100.388 53.893,104.148 53.893,113.55 63.608,117.938 	"/>
	<polyline fill="none" stroke="#FFFFFF" stroke-width="3" stroke-linecap="round" stroke-miterlimit="10" points="152.143,84.601 
		152.403,73.009 144.028,69.058 144.242,59.658 134.63,55.051 	"/>
	<polyline fill="none" stroke="#FFFFFF" stroke-width="3" stroke-linecap="round" stroke-miterlimit="10" points="159.038,80.563 
		159.301,68.972 150.927,65.019 151.141,55.621 141.526,51.014 	"/>
</g>
<rect x="-166.671" y="-485.857" fill="none" width="999.999" height="1000"/>
</svg>
