<?xml version="1.0" encoding="utf-8"?>
<!-- Generator: Adobe Illustrator 16.0.0, SVG Export Plug-In . SVG Version: 6.00 Build 0)  -->
<!DOCTYPE svg PUBLIC "-//W3C//DTD SVG 1.1//EN" "http://www.w3.org/Graphics/SVG/1.1/DTD/svg11.dtd">
<svg version="1.1" id="Layer_1" xmlns="http://www.w3.org/2000/svg" xmlns:xlink="http://www.w3.org/1999/xlink" x="0px" y="0px"
	 width="200px" height="200px" viewBox="0 0 200 200" enable-background="new 0 0 200 200" xml:space="preserve">
<g>
	<path fill="#FFFFFF" d="M136.151,145.287c0.491,1.045,0.293,2.179,0.424,3.271c0.007,0.473,0.013,0.946,0.019,1.418
		c-0.007,1.396-0.012,2.79-0.019,4.186c0.007,0.382,0.013,0.76,0.019,1.141c-0.007,1.488-0.012,2.978-0.019,4.465
		c-0.002,0.473-0.003,0.945-0.006,1.419c-0.128,0.479-0.589,0.589-0.924,0.839c-0.257-0.136-0.516-0.271-0.776-0.409
		c-0.051-1.172-0.103-2.345-0.152-3.515c-0.006-0.472-0.012-0.945-0.017-1.418l0.017-4.187c-0.006-0.471-0.012-0.944-0.019-1.415
		c0.074-1.421,0.205-2.843-0.066-4.259c-0.063-0.461-0.205-0.879-0.619-1.15c-0.853-1.044-2.041-0.649-3.122-0.745
		c-0.782-0.068-1.07,0.239-1.055,1.026c0.027,1.345,0.127,2.708-0.418,3.996c-0.081,0.15-0.161,0.3-0.241,0.447
		c-0.108,0.133-0.215,0.267-0.322,0.401c-0.444,0.367-0.889,0.733-1.332,1.101c-0.833,0.267-1.828,0.28-2.498,0.688
		c-0.766,0.464-0.27,1.584-0.296,2.422c0.005,0.377,0.009,0.754,0.013,1.131c-0.004,1.492-0.008,2.982-0.013,4.474
		c-0.026,0.919-0.507,1.38-1.418,1.409c-1.493,0.005-2.987,0.01-4.479,0.014c-0.374-0.004-0.75-0.009-1.124-0.014
		c-1.494,0.005-2.988,0.01-4.479,0.014c-0.375-0.004-0.75-0.009-1.127-0.014c-1.493,0.005-2.986,0.01-4.479,0.014
		c-0.375-0.004-0.751-0.009-1.126-0.014c-1.492,0.005-2.985,0.01-4.479,0.014c-0.375-0.004-0.751-0.009-1.126-0.014
		c-1.493,0.005-2.987,0.01-4.478,0.014c-0.375-0.004-0.751-0.009-1.126-0.014c-1.493,0.005-2.986,0.01-4.479,0.014
		c-0.376-0.004-0.751-0.009-1.127-0.014c-1.494,0.005-2.986,0.01-4.479,0.014c-0.375-0.004-0.75-0.009-1.126-0.014
		c-1.494,0.005-2.986,0.01-4.479,0.013c-0.276-0.107-0.551-0.217-0.827-0.326c-0.527-1.169-0.093-2.416-0.305-3.612l-0.014-1.127
		c0.021-1.208,0.049-2.419,0.059-3.628c0.002-0.4,0.093-0.901-0.594-0.822l-1.042-0.179c-0.858-0.248-1.576-0.747-2.276-1.275
		c-0.285-0.385-0.57-0.77-0.855-1.154c-0.477-1.047-0.293-2.194-0.492-3.284c0.142-0.481,0.177-0.958-0.043-1.428
		c0.263-1.391,0.163-2.786,0.066-4.183c0.133-0.567,0.266-1.136,0.399-1.703c0.485-1.027,1.368-1.66,2.269-2.273
		c0.632-0.103,1.266-0.203,1.897-0.308c0.84-0.136,2.139,0.438,2.426-0.285c0.312-0.785-0.644-1.695-1.213-2.462
		c-0.492-0.929-0.984-1.857-1.476-2.791c-0.241-0.411-0.482-0.823-0.723-1.233c-0.445-0.828-0.891-1.657-1.336-2.487
		c-0.216-0.372-0.431-0.747-0.645-1.12c-0.316-0.907-0.849-1.697-1.358-2.5c-0.208-0.371-0.416-0.74-0.624-1.112
		c-0.459-0.835-0.918-1.673-1.377-2.509c-0.157-0.288-0.313-0.573-0.469-0.86c-0.475-1.052-0.984-2.085-1.694-3.004
		c-0.102-0.208-0.205-0.419-0.307-0.628c-0.509-1.051-0.969-2.114-0.998-3.311c0.051-0.311-0.019-0.595-0.186-0.857
		c-0.008-1.341-0.239-2.651-0.536-3.952c-0.042-0.366-0.083-0.733-0.124-1.1c-0.183-1.209-0.365-2.422-0.548-3.632
		c-0.083-0.376-0.167-0.753-0.249-1.129c-0.052-1.4-0.365-2.754-0.721-4.101c-0.042-0.22-0.083-0.442-0.123-0.664
		c-0.095-1.282-0.363-2.528-0.76-3.749c-0.074-0.348-0.148-0.698-0.222-1.047c-0.194-1.167-0.434-2.323-0.913-3.414
		c-0.027-0.276-0.015-0.564-0.247-0.773c-0.321-1.115-0.643-2.228-0.962-3.341c-0.023-0.472-0.045-0.942-0.067-1.414
		c0.389-3.784,2.846-5.457,6.27-6.143c0.375-0.004,0.75-0.01,1.124-0.015c1.095,0.204,2.19,0.407,3.285,0.611
		c0.473,0.215,0.946,0.432,1.418,0.646c0.673,0.423,1.346,0.847,2.019,1.27c0.466,0.665,1.31,0.885,1.868,1.918v-3.052
		c0.006-1.396,0.012-2.792,0.018-4.188l-0.018-1.417c0.006-1.396,0.012-2.793,0.018-4.189c-0.006-0.471-0.012-0.944-0.018-1.416
		c0.006-1.396,0.012-2.792,0.018-4.188c-0.006-0.472-0.012-0.945-0.018-1.417c0.006-1.396,0.012-2.792,0.018-4.188
		c-0.006-0.471-0.012-0.944-0.018-1.417c0.452-5.508,3.24-8.287,8.778-8.747c0.958,0.17,2.14,0.758,2.817,0.398
		c0.77-0.408,0.05-1.798,0.427-2.711c0.122-0.295,0.132-0.637,0.194-0.957c0.902-1.755,2.199-3.148,3.852-4.218
		c0.231-0.013,0.434-0.081,0.56-0.296l0.002,0c0.734-0.224,1.469-0.446,2.203-0.668c1.33-0.271,2.646-0.042,3.962,0.115
		c0.353,0.142,0.706,0.284,1.059,0.426l2.247,1.291c0.295,0.275,0.59,0.551,0.887,0.828c0.496,0.737,0.991,1.475,1.487,2.21
		c0.131,0.291,0.261,0.581,0.39,0.871c0.042,0.371,0.095,0.742,0.117,1.113c0.136,2.169,0.133,2.169,2.218,1.629
		c0.381-0.004,0.761-0.007,1.141-0.01c1.141,0.012,2.215,0.358,3.302,0.639c0.379,0.199,0.755,0.397,1.132,0.596
		c0.751,0.654,1.502,1.308,2.252,1.961c0.188,0.272,0.375,0.544,0.563,0.817c0.382,0.921,0.763,1.842,1.146,2.763
		c0.043,0.377,0.084,0.754,0.128,1.13c0.011,0.553,0.02,1.105,0.029,1.659c0.116,0.465,0.33,0.213,0.525,0.068
		c0.993-0.058,1.993-0.072,2.956-0.381c0.335,0.264,0.701,0.399,1.132,0.277c1.125-0.039,2.052,0.583,3.064,0.924
		c0.276,0.188,0.554,0.376,0.83,0.563c0.649,0.649,1.299,1.298,1.947,1.947c0.183,0.278,0.366,0.557,0.548,0.837
		c0.411,1.086,0.822,2.175,0.854,3.36c0.005,0.369,0.012,0.737,0.019,1.106c-0.007,1.5-0.014,2.999-0.018,4.498
		c0.007,0.369,0.012,0.739,0.018,1.107c-0.007,1.499-0.014,2.999-0.018,4.499c0.007,0.369,0.012,0.738,0.018,1.106
		c-0.007,1.5-0.014,2.999-0.018,4.499c0.007,0.369,0.012,0.738,0.018,1.107c-0.007,1.5-0.014,3-0.018,4.498
		c0.007,0.37,0.012,0.738,0.018,1.107c-0.007,1.5-0.014,3-0.018,4.499c0.007,0.369,0.012,0.738,0.018,1.106
		c-0.007,1.5-0.014,2.999-0.018,4.499c0.007,0.37,0.012,0.737,0.018,1.107c-0.007,1.5-0.014,2.999-0.018,4.497
		c0.007,0.368,0.012,0.738,0.018,1.107c-0.007,1.5-0.014,2.997-0.018,4.498c0.007,0.369,0.012,0.736,0.018,1.108
		c-0.201,1.481,0.189,3.022-0.444,4.464c-0.308,0.849-0.617,1.697-0.926,2.544c-1.006,2.19-1.834,4.454-2.615,6.732
		c-0.275,0.734-0.553,1.47-0.828,2.205c-0.88,2.245-1.759,4.49-2.638,6.735c-0.307,0.848-0.617,1.696-0.925,2.545
		c-0.402,0.577-0.37,0.915,0.451,0.937c1.152,0.032,2.305,0.112,3.458,0.172c0.266,0.125,0.531,0.249,0.795,0.373
		c0.761,0.523,1.41,1.155,1.919,1.929c0.128,0.263,0.254,0.528,0.382,0.792c0.059,0.504,0.229,1.023,0.159,1.51
		c-0.212,1.488,0.431,1.933,1.797,1.628c0.355,0.014,0.709,0.024,1.064,0.039c1.063,0.221,1.996,0.694,2.812,1.41
		C135.783,144.742,135.967,145.014,136.151,145.287 M81.777,103.673c-0.438,0.123-0.875,0.13-1.309-0.025
		c-0.525-1.053-0.14-2.196-0.329-3.281c-0.004-0.376-0.009-0.753-0.013-1.129c-0.008-1.399-0.016-2.797-0.023-4.195
		c0.027-0.396,0.084-0.799-0.221-1.131c0.022-1.287-0.421-2.459-0.884-3.627c-0.036-0.449-0.208-0.841-0.492-1.188
		c-0.743-1.957-1.669-3.826-3.045-5.411c-1.199-1.381-2.621-2.484-4.555-2.653c-0.348-0.218-0.723-0.305-1.13-0.216
		c-2.702-0.051-3.827,1.065-3.596,3.57c-0.033,0.441,0.192,0.799,0.381,1.167c0.711,2.598,1.422,5.196,2.133,7.793
		c-0.021,0.312-0.04,0.623,0.227,0.858c0.021,1.244,0.394,2.426,0.627,3.633c-0.061,0.41,0.066,0.777,0.26,1.128
		c0.198,1.301,0.396,2.601,0.595,3.902c-0.03,0.311-0.044,0.62,0.21,0.862c0.01,1.333,0.239,2.634,0.566,3.92
		c-0.013,0.396-0.048,0.793,0.156,1.159c0.157,1.287,0.314,2.576,0.471,3.865c-0.034,0.469,0.171,0.838,0.481,1.166
		c0.409,0.828,0.818,1.657,1.228,2.487c0.169,0.282,0.338,0.564,0.506,0.847c0.47,0.934,0.939,1.867,1.409,2.804
		c0.166,0.282,0.331,0.565,0.496,0.85c0.407,1.136,0.937,2.204,1.645,3.184c0.032,0.285,0.1,0.554,0.36,0.727
		c0.393,1.068,0.932,2.057,1.563,2.996c0.114,0.222,0.229,0.445,0.344,0.667c0.344,0.997,0.823,1.927,1.43,2.792
		c0.025,0.359,0.212,0.632,0.453,0.88c0.483,0.933,0.966,1.864,1.449,2.798c0.113,0.42,0.283,0.813,0.594,1.13
		c0.098,0.636,0.582,0.615,1.048,0.608c0.87-0.012,1.74-0.033,2.61-0.049c0.474,0.249,0.957,0.197,1.441,0.043
		c1.484,0.158,2.968,0.231,4.449-0.048c0.376,0.222,0.764,0.196,1.156,0.048c1.485,0.158,2.968,0.231,4.449-0.045
		c0.377,0.218,0.765,0.193,1.156,0.045c1.39,0.173,2.779,0.201,4.168-0.02c0.476,0.192,0.955,0.183,1.437,0.02
		c1.391,0.173,2.78,0.201,4.168-0.021c0.477,0.195,0.954,0.185,1.436,0.021c1.392,0.173,2.782,0.201,4.169-0.021
		c0.473,0.195,0.948,0.18,1.425,0.021c1.449,0.425,2.414,0.039,2.693-1.572c0.077-0.448,0.25-0.881,0.379-1.319
		c0.395-0.705,0.671-1.453,0.805-2.252c0.917-2.098,1.662-4.258,2.339-6.442c0.371-0.705,0.658-1.44,0.783-2.233
		c0.92-2.071,1.696-4.195,2.309-6.381l-0.036-0.031c0.267-0.114,0.256-0.362,0.281-0.592c0.345-0.499,0.514-1.058,0.565-1.658
		l-0.014,0.001c0.236-0.131,0.253-0.353,0.237-0.587c0.489-1.38,0.209-2.794,0.188-4.195c-0.007-0.474-0.012-0.948-0.018-1.422
		c0.145-1.395,0.116-2.788,0.018-4.184c-0.007-0.475-0.012-0.948-0.018-1.423c0.145-1.393,0.116-2.787,0.018-4.181
		c-0.007-0.474-0.012-0.948-0.018-1.422c0.145-1.394,0.116-2.789,0.018-4.183c-0.007-0.474-0.012-0.948-0.018-1.422
		c0.145-1.392,0.114-2.787,0.02-4.182c-0.074-0.469-0.149-0.938-0.224-1.408c0.557-1.373,0.227-2.794,0.222-4.198
		c-0.007-0.474-0.012-0.949-0.018-1.422c0.145-1.394,0.116-2.788,0.018-4.183c-0.007-0.474-0.012-0.949-0.018-1.422
		c0.145-1.394,0.116-2.789,0.018-4.183c-0.007-0.474-0.012-0.949-0.018-1.421c0.145-1.394,0.116-2.789,0.018-4.183
		c0.13-0.567-0.068-1.043-0.408-1.48c-0.372-0.919-1.03-1.552-1.939-1.933c-0.34-0.305-0.723-0.505-1.189-0.511
		c-1.871-0.708-3.522-0.186-4.863,1.124c-1.313,1.282-1.982,2.872-1.329,4.764c-0.303,0.532-0.289,1.099-0.189,1.677
		c-0.004,1.487-0.008,2.975-0.011,4.462c0.003,0.381,0.007,0.762,0.011,1.144c-0.004,1.487-0.008,2.975-0.011,4.462
		c0.003,0.38,0.007,0.761,0.011,1.143c-0.004,1.487-0.008,2.974-0.011,4.462c0.003,0.38,0.007,0.762,0.011,1.143
		c-0.004,1.488-0.008,2.975-0.011,4.462c0.003,0.38,0.007,0.762,0.011,1.143c-0.005,1.487-0.008,2.975-0.011,4.462
		c-0.045,0.369-0.089,0.737-0.132,1.104c-0.08,0.07-0.157,0.141-0.239,0.21c-0.35,0.017-0.698,0.032-1.05,0.049
		c-0.937-0.975-0.344-2.217-0.581-3.314c-0.008-0.374-0.012-0.747-0.017-1.121c0.005-1.494,0.009-2.989,0.017-4.483
		c-0.008-0.374-0.012-0.747-0.018-1.122c0.006-1.494,0.01-2.989,0.018-4.483c-0.008-0.374-0.012-0.748-0.017-1.122
		c0.005-1.495,0.009-2.99,0.017-4.483c-0.008-0.374-0.012-0.748-0.017-1.121c0.005-1.495,0.009-2.99,0.017-4.484
		c-0.008-0.374-0.012-0.748-0.018-1.121c0.008-1.493,0.014-2.988,0.021-4.481c0.254-0.457,0.247-0.93,0.085-1.412
		c0.201-1.391,0.157-2.784,0.029-4.176c0.125-0.479,0.142-0.956-0.028-1.429c0.186-1.334,0.278-2.66-0.384-3.912
		c-0.005-0.373-0.189-0.65-0.468-0.877c-0.549-1.074-1.437-1.695-2.605-1.939c-0.325-0.329-0.735-0.264-1.137-0.239
		c-3.396-0.144-5.442,1.908-5.268,5.284c0.003,0.379,0.006,0.76,0.009,1.14c-0.003,1.488-0.006,2.977-0.009,4.464
		c0.003,0.38,0.006,0.761,0.009,1.142c-0.003,1.488-0.006,2.976-0.009,4.463c0.003,0.381,0.006,0.762,0.009,1.143
		c-0.003,1.488-0.006,2.975-0.009,4.463c0.003,0.38,0.006,0.762,0.009,1.142c-0.003,1.488-0.006,2.975-0.009,4.462
		c0.003,0.381,0.006,0.762,0.009,1.143c-0.003,1.487-0.006,2.975-0.009,4.462c0.003,0.381,0.006,0.762,0.009,1.143
		c-0.003,1.487-0.006,2.976-0.009,4.462c0.003,0.381,0.006,0.762,0.009,1.143c-0.019,0.948-0.371,1.54-1.448,1.366
		c-0.173-0.205-0.345-0.411-0.52-0.615c-0.021-1.279-0.043-2.558-0.064-3.837c-0.005-0.376-0.01-0.754-0.014-1.131
		c0.004-1.491,0.009-2.982,0.014-4.474c-0.005-0.376-0.01-0.754-0.014-1.131c0.004-1.491,0.009-2.982,0.014-4.474l-0.014-1.131
		c0.004-1.491,0.009-2.982,0.014-4.474c0.035-0.315,0.144-0.646-0.211-0.868c0.442-1.563,0.24-3.154,0.211-4.737
		c-0.006-0.377-0.01-0.753-0.015-1.13c0.005-1.491,0.009-2.982,0.013-4.474c-0.004-0.377-0.008-0.754-0.013-1.131
		c0.009-1.493,0.016-2.986,0.025-4.479c0.279-0.464,0.275-0.936,0.031-1.413c0.006-1.397,0.01-2.794,0.014-4.192
		c0.236-0.473,0.224-0.944-0.014-1.413c0.134-1.146,0.097-2.242-0.882-3.069c-0.232-0.448-0.599-0.742-1.065-0.919
		c-1.01-0.758-2.122-1.136-3.396-0.921c-2.869,0.404-4.533,2.035-4.456,4.366c-0.003,1.491-0.007,2.98-0.012,4.471
		c0.003,0.378,0.007,0.757,0.011,1.134c0.002,1.488,0.005,2.977,0.008,4.464c0,0.469,0.001,0.94,0.001,1.41l-0.001,4.195l0.001,1.41
		c0,1.398-0.001,2.796-0.001,4.195c0,0.47,0.001,0.939,0.001,1.41c0,1.398-0.001,2.797-0.001,4.195c0,0.469,0.001,0.939,0.001,1.409
		l-0.001,4.196c0,0.469,0.001,0.939,0.001,1.41c0,1.398-0.001,2.796-0.001,4.195c0,0.47,0.001,0.94,0.001,1.41
		c-0.016,0.643-0.053,1.285-0.042,1.926c0.011,0.648-0.098,1.258-0.818,1.391c-0.759,0.141-1.018-0.446-1.18-1.062
		c-0.003-0.378-0.007-0.758-0.011-1.135c0.004-1.491,0.008-2.979,0.011-4.47c-0.003-0.379-0.007-0.758-0.011-1.135
		c0.004-1.49,0.008-2.979,0.011-4.47c-0.003-0.378-0.007-0.758-0.011-1.135c0.004-3.359,0.008-6.716,0.011-10.076l-0.011-1.135
		c0.004-1.489,0.008-2.979,0.011-4.469c-0.003-0.378-0.007-0.758-0.011-1.136c0.004-1.489,0.007-2.979,0.011-4.469
		c0.04-0.405,0.116-0.817-0.252-1.131c-0.437-1.142-1.24-1.881-2.424-2.198c-0.309-0.402-0.751-0.501-1.22-0.538
		c-0.51-0.025-1.023-0.102-1.528-0.063c-2.259,0.169-4.346,2.008-4.378,3.958c-0.046,2.696,0.015,5.394,0.031,8.091
		c0.004,0.375,0.008,0.751,0.014,1.127c-0.004,1.493-0.009,2.985-0.014,4.478c0.004,0.375,0.008,0.751,0.014,1.127
		c-0.004,1.493-0.009,2.986-0.014,4.478c0.004,0.376,0.008,0.751,0.014,1.127c-0.004,1.493-0.009,2.986-0.014,4.479
		c0.004,0.375,0.008,0.75,0.014,1.126l-0.014,4.479c0.004,0.375,0.008,0.75,0.014,1.126l-0.014,4.478l0.014,1.127
		c0.008,1.489,0.017,2.977,0.026,4.466c-0.025,0.309-0.153,0.641,0.188,0.873c-0.546,1.559-0.2,3.16-0.228,4.744
		C82.005,102.773,81.892,103.224,81.777,103.673 M91.09,139.577c-0.468-0.238-0.938-0.25-1.41-0.014
		c-1.398,0.004-2.796,0.009-4.195,0.014c-0.468-0.238-0.938-0.25-1.41-0.014c-1.398,0.006-2.797,0.009-4.196,0.014
		c-3.094-0.613-4.28,0.573-3.665,3.67c-0.003,1.4-0.008,2.8-0.012,4.197c-0.253,0.447-0.02,0.8,0.219,1.154
		c0.906,1.595,2.399,0.949,3.718,0.973c0.474,0.005,0.947,0.013,1.42,0.016c1.396,0.093,2.791,0.119,4.185-0.016
		c0.473,0.005,0.947,0.013,1.42,0.016c1.395,0.093,2.79,0.119,4.185-0.016c0.473,0.005,0.947,0.013,1.42,0.016
		c1.396,0.093,2.79,0.119,4.185-0.016l1.421,0.016c1.396,0.093,2.791,0.119,4.184-0.016c0.474,0.005,0.948,0.013,1.421,0.016
		c1.395,0.093,2.79,0.119,4.184-0.016c0.475,0.005,0.947,0.013,1.421,0.016c1.396,0.093,2.79,0.119,4.185-0.016
		c0.472,0.005,0.947,0.013,1.42,0.016c1.396,0.093,2.79,0.119,4.184-0.016c0.475,0.005,0.948,0.013,1.423,0.016
		c1.394,0.092,2.789,0.119,4.184-0.017c1.587-0.11,2.026-0.581,2.001-2.139c0.005-1.396,0.011-2.794,0.016-4.189
		c0.234-0.474,0.224-0.946-0.015-1.414c0.015-1.799-0.469-2.275-2.263-2.251c-0.468-0.238-0.937-0.25-1.409-0.014
		c-1.399,0.004-2.796,0.009-4.195,0.014c-0.468-0.238-0.938-0.25-1.41-0.014c-1.397,0.006-2.796,0.009-4.196,0.014
		c-0.466-0.238-0.938-0.25-1.407-0.014c-1.4,0.006-2.797,0.009-4.196,0.014c-0.468-0.238-0.938-0.25-1.408-0.014
		c-1.399,0.006-2.797,0.009-4.196,0.014c-0.467-0.238-0.937-0.25-1.409-0.014c-1.398,0.006-2.797,0.009-4.196,0.014
		c-0.468-0.238-0.938-0.25-1.41-0.014C93.887,139.567,92.488,139.572,91.09,139.577 M122.75,153.048
		c-0.011-0.938-0.696-0.475-1.127-0.542c-1.49,0.006-2.981,0.008-4.474,0.014c-0.378-0.006-0.755-0.008-1.132-0.014
		c-1.491,0.006-2.982,0.008-4.474,0.014c-0.377-0.006-0.755-0.008-1.131-0.014c-1.493,0.006-2.983,0.008-4.476,0.011l-1.13-0.011
		c-1.491,0.006-2.983,0.008-4.474,0.014c-0.376-0.006-0.754-0.008-1.131-0.014c-1.491,0.006-2.983,0.008-4.474,0.011
		c-0.377-0.003-0.755-0.005-1.131-0.011c-1.492,0.006-2.982,0.008-4.474,0.011l-1.132-0.011c-1.491,0.006-2.983,0.008-4.474,0.014
		c-3.716-0.091-3.157-0.658-3.064,3.057c-0.021,1.21-0.05,2.418-0.057,3.627c-0.002,0.397-0.103,0.904,0.587,0.826
		c0.376,0.005,0.755,0.008,1.132,0.012l4.474-0.012c0.376,0.005,0.754,0.008,1.131,0.012c1.491-0.004,2.981-0.007,4.474-0.012
		c0.376,0.005,0.754,0.008,1.131,0.012c1.491-0.004,2.982-0.007,4.474-0.012c0.377,0.005,0.756,0.008,1.132,0.012
		c1.49-0.004,2.982-0.007,4.473-0.012c0.377,0.005,0.755,0.008,1.132,0.012c1.491-0.004,2.982-0.007,4.475-0.012
		c0.376,0.005,0.753,0.008,1.131,0.012c1.492-0.004,2.981-0.007,4.474-0.012c0.378,0.005,0.755,0.008,1.132,0.012
		c1.491-0.004,2.982-0.007,4.475-0.012c2.975,0.122,2.638,0.453,2.513-2.5C122.741,156.036,122.745,154.544,122.75,153.048"/>
	<path fill="#FFFFFF" d="M102.057,65.609c-0.035,0.369-0.071,0.737-0.106,1.106c-0.413,0.665-0.784,1.373-1.557,1.707
		c-0.452,0.197-0.573,0.555-0.564,1.01c0.029,1.248,0.047,2.496,0.07,3.744c0.002,0.375,0.006,0.752,0.009,1.127
		c-0.134,1.492-0.127,2.985-0.01,4.477c0.003,0.469,0.007,0.938,0.01,1.407c0.363,1.012,1.707,1.189,1.957,2.298
		c0.067,0.356,0.135,0.712,0.202,1.067c-0.156,1.155-0.604,2.137-1.706,2.67c-0.526,0.255-0.553,0.671-0.538,1.148
		c0.03,0.872,0.05,1.746,0.074,2.619c0.003,0.469,0.007,0.938,0.01,1.407c-0.138,1.399-0.125,2.798-0.01,4.198
		c0.003,0.469,0.007,0.938,0.01,1.408c-0.533,1.477,0.467,2.159,1.472,2.838c0.181,0.377,0.259,0.815,0.628,1.083
		c1.16,0.464,2.394,0.523,3.614,0.661c1.173,0.311,2.238,0.746,3.37-0.413c1.072-1.099,0.374-2.234,0.536-3.339
		c0.003-1.487,0.006-2.977,0.01-4.465c-0.004-0.38-0.007-0.759-0.01-1.139c0.018-0.595-0.004-1.195,0.064-1.784
		c0.099-0.856-0.184-1.417-1.057-1.616c-0.262-0.33-0.523-0.66-0.785-0.991c-0.59-1.703-0.27-3.139,1.328-4.102
		c0.716-0.431,0.466-1.014,0.459-1.587c-0.004-0.377-0.007-0.754-0.01-1.13c0.003-1.491,0.006-2.983,0.01-4.475
		c-0.004-0.376-0.007-0.754-0.01-1.131c0.525-1.539-1.139-1.649-1.644-2.515c-0.157-0.379-0.313-0.759-0.471-1.14
		c0.001-1.336,0.371-2.518,1.628-3.177c0.813-0.427,0.486-1.115,0.531-1.713c0.039-0.508-0.02-1.023-0.035-1.535
		c-0.004-0.377-0.007-0.754-0.01-1.131c0.018-1.048,0.038-2.095,0.054-3.143c0.007-0.372,0.021-0.752-0.488-0.814
		c-0.31-0.253-0.62-0.505-0.928-0.758c-0.681-0.953-0.822-2.004-0.57-3.126c0.465-0.829,1.099-1.474,1.974-1.872
		c0.992-0.214,1.916-0.023,2.784,0.484c0.269,0.282,0.536,0.564,0.802,0.846c0.693,2.151,0.48,3.017-1.249,4.29
		c-0.619,0.457-0.577,0.975-0.501,1.575c0,0.47,0,0.939,0,1.409c0,1.399,0,2.797,0,4.196c-0.164,0.65-0.032,1.146,0.7,1.32
		c0.777,0.59,1.306,1.336,1.452,2.322c-0.013,0.377-0.026,0.754-0.039,1.131c-0.389,0.813-0.944,1.483-1.7,1.982l-0.285,0.254
		c-0.383,1.39-0.144,2.798-0.128,4.201c-0.055,0.477-0.171,0.958,0.1,1.412c-0.018,0.884-0.008,1.77-0.062,2.651
		c-0.045,0.713,0.198,1.169,0.919,1.325c0.184,0.186,0.369,0.371,0.554,0.556c0.603,0.94,0.733,1.957,0.492,3.033
		c-0.341,0.423-0.599,1.022-1.042,1.234c-1.129,0.542-1.117,1.418-0.961,2.407v4.195v1.41c0.122,1.318-0.527,2.703,0.338,3.958
		c0.395,0.275,0.791,0.55,1.188,0.823c0.491,1.088,1.117,1.971,2.526,1.678c0.242,0.257,0.551,0.24,0.862,0.209
		c1.637,0.404,3.239,0.952,4.526-0.883c0.337-0.479,0.811-0.754,0.746-1.448c-0.081-0.879-0.062-1.769-0.086-2.653
		c0.104-0.475,0.112-0.95-0.021-1.42c0.124-1.231,0.517-2.564-1.178-3.107c-0.21-0.271-0.419-0.541-0.628-0.809
		c-0.604-1.74-0.279-3.19,1.375-4.167c0.759-0.447,0.494-1.092,0.452-1.711c-0.005-0.47-0.009-0.939-0.013-1.409
		c0.027-0.964,0.045-1.929,0.085-2.892c0.025-0.577-0.137-0.998-0.772-1.095c-0.283-0.267-0.565-0.534-0.847-0.8
		c-0.509-0.867-0.692-1.792-0.499-2.784c0.348-0.533,0.589-1.195,1.184-1.481c0.996-0.477,1.08-1.238,0.849-2.159
		c0.141-1.398,0.121-2.796,0.014-4.196c0.104-0.771-0.627-0.75-1.006-1.062c-0.728-0.707-1.117-1.566-1.155-2.582
		c0.128-0.461,0.253-0.922,0.38-1.383c0.358-0.368,0.715-0.736,1.072-1.104c0.632-0.222,1.277-0.374,1.953-0.374
		c0.898,0.09,1.55,0.635,2.19,1.196c0.144,0.29,0.286,0.579,0.431,0.869c0.321,1.232,0.137,2.463-0.912,3.141
		c-1.229,0.792-1.249,1.795-1.089,2.975c0.005,0.47,0.01,0.941,0.017,1.412c-0.007,0.84-0.011,1.681-0.017,2.522
		c-0.033,0.173,0.057,0.239,0.214,0.248c0.359,0.234,0.719,0.469,1.078,0.703c0.187,0.266,0.378,0.531,0.567,0.796
		c0.545,1.771,0.193,3.213-1.526,4.156c-0.607,0.333-0.329,0.889-0.335,1.373c0.006,0.47,0.011,0.942,0.017,1.412
		c-0.02,1.087-0.045,2.174-0.059,3.262c-0.007,0.409-0.05,0.854,0.546,0.905c0.274,0.21,0.549,0.419,0.823,0.629
		c0.57,0.925,1.051,1.872,0.688,3.01c-0.263,0.654-0.632,1.292-1.257,1.587c-0.872,0.414-0.896,1.05-0.74,1.818
		c-0.007,1.399-0.012,2.796-0.017,4.193c0.003,0.471,0.006,0.941,0.009,1.412c-0.138,0.373,0.003,0.623,0.35,0.779
		c0.853,0.386,1.313,1.129,1.736,1.906c0.034,0.226,0.068,0.45,0.104,0.674c-0.158,1.379-0.747,2.466-2.089,3.01
		c-0.341,0.138-0.517,0.382-0.634,0.682c-0.715,1.845-1.417,3.695-2.124,5.541c-0.353,0.624-0.638,1.27-0.766,1.979
		c-1.08,2.279-1.982,4.628-2.814,7.005c-0.408,0.694-0.701,1.434-0.854,2.228l0.006-0.003c-0.221,0.132-0.266,0.34-0.258,0.574
		c-0.474,0.68-0.704,1.366-0.244,2.172c0.311,0.545,0.215,1.166,0.115,1.765c-0.4,1.02-1.146,1.701-2.117,2.157
		c-0.984,0.185-1.896-0.017-2.752-0.517c-0.255-0.283-0.513-0.565-0.77-0.85c-0.112-0.525-0.396-0.794-0.976-0.766
		c-1.115,0.054-2.235,0.062-3.353,0.089c-0.375-0.004-0.754-0.011-1.13-0.015c-1.491-0.105-2.984-0.121-4.476,0.015
		c-0.376-0.004-0.753-0.011-1.129-0.015c-1.399-0.103-2.797-0.127-4.195,0.015c-0.47-0.004-0.94-0.011-1.41-0.015
		c-1.11-0.224-1.985-0.095-2.68,1.03c-0.67,1.082-1.893,1.204-3.102,1.038c-0.41-0.248-0.819-0.496-1.229-0.743
		c-0.622-0.74-0.937-1.591-0.945-2.556c0.146-0.398-0.093-0.639-0.354-0.871c-0.403-0.983-0.907-1.908-1.521-2.774
		c-0.094-0.328-0.227-0.636-0.513-0.85c-0.497-0.93-0.993-1.859-1.489-2.79c-0.242-0.404-0.484-0.812-0.725-1.214
		c-0.322-0.897-0.822-1.694-1.359-2.473c-0.211-0.37-0.423-0.746-0.636-1.119c-0.472-1.009-0.737-2.236-2.253-2.153
		c-0.271-0.137-0.543-0.271-0.815-0.407c-0.69-0.676-1.188-1.45-1.264-2.443c0.124-0.563,0.249-1.129,0.373-1.692
		c1.706-1.303,0.405-2.782,0.25-4.195c-0.117-0.479-0.234-0.957-0.35-1.438c-0.254-1.108-0.508-2.217-0.763-3.326
		c-0.104-0.47-0.21-0.939-0.314-1.41c-0.267-1.118-0.535-2.235-0.802-3.354c0.025-0.313,0.017-0.617-0.244-0.847
		c-0.09-1.256-0.434-2.455-0.828-3.641c-0.02-0.392,0.041-0.803-0.271-1.125c0.067-0.664-0.245-0.939-0.879-1.175
		c-1.545-0.574-2.16-1.675-1.983-3.269c0.152-1.371,0.999-2.171,2.266-2.515c1.27-0.344,2.584,0.236,3.252,1.333
		c0.726,1.191,0.621,2.648-0.392,3.715c-0.443,0.466-0.579,0.842-0.395,1.46c0.292,0.974,0.475,1.982,0.703,2.976
		c0.101,0.387,0.202,0.776,0.302,1.165c0.271,1.199,0.542,2.398,0.814,3.598c0.083,0.284,0.164,0.567,0.247,0.852
		c0.121,1.247,0.466,2.443,0.831,3.635c-0.02,0.311-0.034,0.62,0.233,0.852c0.104,1.254,0.43,2.459,0.825,3.646
		c0.038,0.39-0.026,0.804,0.27,1.132c0.544,0.895,1.833,0.728,2.355,1.652c0.172,0.283,0.346,0.566,0.52,0.852
		c-0.004,0.872,0.254,1.837-0.37,2.554c-0.731,0.84-0.432,1.489,0.125,2.185c0.167,0.463,0.371,0.901,0.733,1.247
		c0.271,0.778,0.687,1.479,1.174,2.139c0.168,0.284,0.337,0.569,0.505,0.855c0.341,1.013,0.961,1.875,1.498,2.784
		c0.101,0.326,0.228,0.636,0.519,0.847c0.44,0.859,0.862,1.728,1.329,2.572c0.181,0.325,0.251,0.87,0.851,0.699
		c0.548-0.158,0.645-0.567,0.602-1.082c-0.115-1.379-0.209-2.761-0.311-4.143c-0.026-0.379-0.052-0.761-0.079-1.144
		c-0.069-1.212-0.139-2.42-0.208-3.63c0.016-0.574,0.117-1.16-0.186-1.7c-0.059-1.3-0.118-2.596-0.175-3.894
		c-0.05-0.38-0.1-0.76-0.151-1.139c0.049-1.412,0.043-2.819-0.25-4.21c-0.02-0.372-0.041-0.745-0.061-1.117
		c0.454-1.483-0.893-1.807-1.628-2.524c-0.191-0.372-0.381-0.744-0.572-1.117c-0.098-1.484,0.336-2.654,1.68-3.508
		c1.006-0.639,0.366-1.747,0.436-2.649c-0.004-0.47-0.009-0.94-0.014-1.409c0.141-1.399,0.122-2.797,0.014-4.196
		c-0.004-0.469-0.009-0.939-0.014-1.409c0.028-0.856,0.039-1.712,0.088-2.568c0.035-0.59-0.197-0.948-0.773-1.08
		c-0.291-0.269-0.58-0.536-0.87-0.805c-0.64-1.099-0.72-2.229-0.194-3.396c0.931-0.94,2.429-1.585,1.749-3.363
		c0.142-1.398,0.12-2.796,0.015-4.196c-0.063-0.501-0.494-0.516-0.844-0.636c-0.837-0.829-1.373-1.788-1.309-3.008
		c0.314-0.93,0.751-1.775,1.675-2.242c0.499-0.252,0.633-0.619,0.462-1.128c0.142-1.398,0.123-2.797,0.014-4.196
		c0.139-0.529-0.078-0.817-0.606-0.893c-2.104-2.044-2.053-3.753,0.164-5.554c0.469-0.099,0.937-0.2,1.405-0.3
		c1.02,0.166,1.87,0.637,2.553,1.412c0.136,0.292,0.273,0.584,0.411,0.875c0.243,1.514-0.244,2.679-1.567,3.515
		c-1.061,0.67-0.357,1.741-0.5,2.621c0.005,0.471,0.011,0.941,0.016,1.411c-0.272,1.269,0.006,2.278,1.317,2.801
		c0.197,0.277,0.393,0.557,0.59,0.835c0.459,1.661,0.11,3.041-1.45,3.946c-0.434,0.251-0.526,0.583-0.522,1.033
		c0.013,1.626,0.02,3.253-0.002,4.88c-0.008,0.585,0.128,1.007,0.774,1.105c0.292,0.271,0.586,0.542,0.879,0.813
		c0.906,2.339,0.765,2.969-1.203,4.52c-0.523,0.411-0.444,0.853-0.392,1.355c0.004,0.377,0.006,0.755,0.01,1.133
		c-0.005,1.398-0.01,2.796-0.016,4.194c0.005,0.47,0.011,0.94,0.016,1.41c-0.005,1.398-0.01,2.795-0.016,4.192
		c-0.194,0.688,0.21,0.969,0.777,1.138c0.91,0.551,0.945,2.249,2.523,1.923c0.236,0.035,0.473,0.071,0.709,0.106
		c0.855,0.17,1.706,0.37,2.566,0.504c2.348,0.365,3.45-0.595,3.446-2.984c-0.002-1.063-0.029-2.126-0.045-3.189
		c-0.004-0.381-0.008-0.763-0.011-1.145c0.003-1.487,0.007-2.973,0.011-4.459c-0.021-0.556,0.286-1.157-0.23-1.643
		c-0.756-0.396-1.325-0.976-1.715-1.734c-0.086-0.375-0.174-0.752-0.261-1.128c0.214-1.129,0.631-2.141,1.737-2.671
		c0.466-0.223,0.532-0.565,0.521-1.006c-0.028-1.013-0.036-2.026-0.052-3.04c-0.003-0.378-0.007-0.755-0.01-1.132
		c0.003-1.491,0.007-2.982,0.01-4.473c-0.003-0.377-0.007-0.755-0.01-1.132c0.562-1.717-1.296-1.899-1.845-2.91
		c-0.087-0.247-0.175-0.495-0.261-0.742c-0.127-1.421,0.352-2.525,1.566-3.354c1.175-0.801,0.393-2.04,0.55-3.073
		c-0.003-0.376-0.007-0.754-0.01-1.132c0.002-1.491,0.006-2.981,0.01-4.473c-0.003-0.377-0.007-0.755-0.01-1.132
		c0.153-0.549-0.256-0.701-0.62-0.91c-0.708-0.406-1.099-1.085-1.47-1.778c-0.033-0.225-0.069-0.449-0.103-0.672
		c0.228-1.845,1.194-2.98,3.094-3.221c0.375,0.048,0.749,0.097,1.123,0.145c0.791,0.509,1.482,1.109,1.859,2.002
		c0.053,0.362,0.106,0.724,0.158,1.086c-0.112,0.643-0.231,1.411-0.776,1.716c-2.05,1.15-1.427,3.005-1.39,4.72
		c0.003,0.469,0.007,0.938,0.011,1.407c-0.138,1.399-0.125,2.798-0.01,4.197c-0.192,0.646,0.056,1.016,0.707,1.136
		C101.356,63.782,101.944,64.558,102.057,65.609 M115.765,121.13c0.237-0.129,0.259-0.355,0.269-0.588
		c0.39-0.479,0.498-1.071,0.661-1.643c1.017-2.289,1.998-4.592,2.76-6.982l-0.035-0.028c0.266-0.113,0.261-0.36,0.302-0.588
		c0.365-0.616,0.643-1.268,0.772-1.975c0.148-0.59,1.05-1.139,0.197-1.783c-0.575-0.436-0.818-1.092-1.283-1.587
		c-0.397-0.423-0.927-0.244-1.402-0.31c-1.188-0.342-2.403-0.521-3.635-0.603c-0.534-0.355-0.907-0.158-1.242,0.321
		c-0.46,0.652-1.12,1.03-1.876,1.252c-1.146,0.067-2.186-0.19-3.024-1.03c-0.105-0.153-0.212-0.311-0.317-0.467
		c-0.213-0.513-0.041-1.276-0.887-1.382c-0.828-0.104-1.658-0.2-2.486-0.299c-0.263-0.171-0.544-0.266-0.861-0.215
		c-0.742,0.089-1.556-0.857-2.238,0.175c-0.771,1.164-1.932,1.46-3.243,1.385c-0.392-0.196-0.784-0.392-1.176-0.586
		c-0.291-0.399-0.58-0.799-0.875-1.195c-0.289-0.391-0.039-1.179-0.866-1.17c-0.56-0.095-1.118-0.192-1.677-0.289
		c-0.873-0.147-1.744-0.297-2.616-0.439c-0.803-0.132-2.876,1.556-2.841,2.351c0.053,1.21,0.157,2.416,0.24,3.623
		c-0.1,0.399-0.022,0.774,0.161,1.134c0.017,1.412-0.114,2.832,0.247,4.222c0.024,0.368,0.048,0.737,0.072,1.105
		c-0.096,1.412,0.021,2.81,0.255,4.2c0.018,0.376,0.035,0.751,0.053,1.126c-0.135,1.41,0.207,2.791,0.26,4.188
		c0.016,0.379,0.031,0.759,0.047,1.138c-0.302,1.412,0.542,2.166,1.603,2.796c0.267,0.365,0.256,0.953,0.847,1.056
		c1.396-0.007,2.793-0.011,4.19-0.017l1.415,0.017c1.396-0.007,2.793-0.011,4.189-0.017c0.474,0.006,0.944,0.011,1.415,0.017
		c1.397-0.007,2.794-0.011,4.19-0.017c0.471,0.006,0.942,0.011,1.414,0.017c0.741,0.146,1.273,0.028,1.702-0.751
		c0.583-1.06,1.654-1.479,2.84-1.329c0.548,0.067,0.732-0.09,0.899-0.549c0.519-1.432,1.069-2.852,1.608-4.276L115.765,121.13z
		 M73.125,86.56c-0.104-0.758-0.519-1.261-1.253-1.251c-0.709,0.009-1.24,0.43-1.224,1.216c0.015,0.752,0.447,1.213,1.217,1.216
		C72.635,87.744,73.018,87.271,73.125,86.56 M79.013,111.5c-0.074-0.76-0.503-1.257-1.242-1.254c-0.736,0.004-1.227,0.5-1.225,1.258
		c0.002,0.688,0.418,1.179,1.131,1.154C78.367,112.634,78.936,112.313,79.013,111.5 M111.865,103.635
		c-0.036-0.729-0.416-1.22-1.186-1.232c-0.774-0.014-1.219,0.514-1.236,1.238c-0.019,0.677,0.423,1.142,1.122,1.187
		C111.344,104.877,111.755,104.426,111.865,103.635 M100.25,65.694c-0.203-0.691-0.577-1.228-1.358-1.162
		c-0.764,0.064-1.159,0.572-1.098,1.343c0.055,0.715,0.511,1.121,1.204,1.091C99.751,66.935,100.131,66.42,100.25,65.694
		 M123.622,66.938c-0.029-0.8-0.451-1.275-1.209-1.26c-0.758,0.016-1.202,0.559-1.204,1.285c-0.001,0.683,0.452,1.125,1.158,1.148
		C123.151,68.137,123.55,67.683,123.622,66.938 M88.292,99.745c-0.069-0.671-0.477-1.103-1.263-1.04
		c-0.695,0.054-1.142,0.5-1.122,1.181c0.02,0.721,0.457,1.241,1.236,1.226C87.917,101.095,88.307,100.63,88.292,99.745
		 M99.107,51.021c0.598-0.194,1.159-0.565,1.086-1.326c-0.069-0.717-0.572-1.195-1.334-1.134c-0.687,0.056-1.083,0.516-1.071,1.223
		C97.802,50.567,98.268,50.942,99.107,51.021 M88.311,68.698c-0.088-0.612-0.454-1.076-1.162-1.065
		c-0.845,0.013-1.288,0.576-1.243,1.367c0.039,0.684,0.549,1.089,1.241,1.066C87.93,70.038,88.285,69.536,88.311,68.698
		 M87.092,58.352c0.793,0.017,1.209-0.363,1.21-1.165c0.002-0.727-0.375-1.111-1.096-1.149c-0.784-0.042-1.274,0.378-1.306,1.116
		C85.872,57.875,86.264,58.38,87.092,58.352 M110.462,56.197c-0.715,0.125-1.184,0.52-1.161,1.295
		c0.02,0.713,0.452,1.072,1.161,1.116c0.827,0.052,1.24-0.435,1.262-1.155C111.747,56.695,111.193,56.327,110.462,56.197
		 M99.142,82.395c-0.947,0-1.373,0.374-1.362,1.178c0.01,0.721,0.374,1.09,1.111,1.128c0.805,0.041,1.275-0.371,1.298-1.108
		C100.213,82.868,99.805,82.374,99.142,82.395 M112.872,127.792c-0.853,0.048-1.114,0.534-1.078,1.3
		c0.035,0.751,0.491,1.119,1.149,1.104c0.734-0.016,1.18-0.465,1.161-1.257C114.085,128.122,113.604,127.807,112.872,127.792
		 M110.715,87.565c0.406,0.039,0.959-0.302,1.012-1.053c0.049-0.705-0.343-1.237-1.145-1.273c-0.773-0.035-1.235,0.344-1.277,1.121
		C109.266,87.066,109.624,87.485,110.715,87.565 M88.686,130.133c0.753-0.046,1.232-0.432,1.218-1.199
		c-0.012-0.679-0.409-1.095-1.135-1.123c-0.776-0.028-1.261,0.354-1.293,1.109C87.442,129.685,87.923,130.08,88.686,130.133
		 M123.634,91.591c-0.044-0.757-0.449-1.084-1.178-1.101c-0.824-0.019-1.256,0.423-1.231,1.18c0.022,0.662,0.412,1.135,1.169,1.126
		C123.194,92.787,123.568,92.342,123.634,91.591 M98.821,100.602c-0.635-0.085-1.091,0.346-1.129,1.097
		c-0.032,0.664,0.325,1.164,1.071,1.197c0.771,0.035,1.244-0.333,1.294-1.12C100.104,101.047,99.752,100.638,98.821,100.602
		 M122.461,106.246c0.751-0.114,1.186-0.524,1.147-1.312c-0.034-0.716-0.47-1.151-1.159-1.142c-0.77,0.01-1.17,0.486-1.14,1.285
		C121.339,105.821,121.767,106.152,122.461,106.246 M87.201,82.436c0.635-0.146,1.127-0.494,1.106-1.281
		c-0.018-0.693-0.405-1.159-1.092-1.199c-0.756-0.044-1.223,0.396-1.251,1.165C85.937,81.89,86.391,82.291,87.201,82.436
		 M122.4,80.251c0.715,0.033,1.193-0.254,1.208-1.018c0.016-0.758-0.349-1.255-1.154-1.282c-0.719-0.024-1.19,0.394-1.238,1.067
		C121.164,79.765,121.581,80.245,122.4,80.251 M110.771,72.367c0.553,0.006,0.933-0.476,0.933-1.126
		c0.001-0.728-0.422-1.205-1.243-1.153c-0.714,0.044-1.138,0.428-1.146,1.13C109.305,72.01,109.789,72.371,110.771,72.367"/>
	<path fill="#FFFFFF" d="M81.287,143.007c0.463-0.038,0.927-0.077,1.39-0.117c1.187,0.582,1.313,1.478,0.76,2.572
		c-0.076,0.075-0.149,0.15-0.225,0.225c-1.1,0.581-1.941,0.3-2.551-0.761c0.035-0.461,0.07-0.923,0.105-1.385
		C80.94,143.361,81.114,143.186,81.287,143.007"/>
	<path fill="#FFFFFF" d="M90.355,144.359c-0.086,0.94-0.681,1.427-1.518,1.701c-1.225-0.253-1.848-0.94-1.615-2.244
		c0.354-0.311,0.706-0.625,1.059-0.935C89.377,142.805,90.165,143.163,90.355,144.359"/>
</g>
</svg>
