<?xml version="1.0" encoding="utf-8"?>
<!-- Generator: Adobe Illustrator 16.0.0, SVG Export Plug-In . SVG Version: 6.00 Build 0)  -->
<!DOCTYPE svg PUBLIC "-//W3C//DTD SVG 1.1//EN" "http://www.w3.org/Graphics/SVG/1.1/DTD/svg11.dtd">
<svg version="1.1" id="Layer_1" xmlns="http://www.w3.org/2000/svg" xmlns:xlink="http://www.w3.org/1999/xlink" x="0px" y="0px"
	 width="200px" height="200px" viewBox="0 0 200 200" enable-background="new 0 0 200 200" xml:space="preserve">
<g>
	<path fill="#FFFFFF" d="M74.575,54.245c0-1.442-0.02-2.701,0.005-3.957c0.039-2.032,0.698-2.781,2.685-2.807
		c4.107-0.051,8.214-0.046,12.322-0.004c2.044,0.021,2.698,0.721,2.741,2.726c0.027,1.261,0.005,2.525,0.005,3.953
		c0.767,0.034,1.384,0.083,2,0.083c3.587,0.008,7.175-0.031,10.76,0.019c3.509,0.048,5.657,2.163,5.654,5.636
		c-0.008,13.131-0.089,26.262-0.089,39.393c0,13.122,0.069,26.244,0.099,39.369c0.011,4.61-1.901,6.506-6.535,6.511
		c-5.67,0.004-11.34-0.004-17.009,0.004c-0.614,0-1.228,0.05-1.863,0.079c0.469,2.213,1.732,3.192,4.112,3.199
		c6.827,0.018,13.653,0.009,20.48,0.009c5.669,0,11.338,0.006,17.009-0.004c3.257-0.006,4.782-1.514,4.792-4.772
		c0.016-6.479-0.007-12.959,0.014-19.438c0.004-1.509-0.344-2.691-1.92-3.335c-0.368-0.149-0.622-1.011-0.63-1.545
		c-0.052-4.28-0.14-8.567,0.006-12.843c0.104-3.061-1.101-5.417-3.364-7.234c-2.506-2.011-3.626-4.527-3.559-7.693
		c0.059-2.714,0.014-5.43,0.014-8.302c0.862-0.074,1.635-0.141,2.611-0.225c0-2.53-0.009-4.999,0.003-7.467
		c0.012-2.414,1.135-3.813,3.048-3.832c1.902-0.018,3.104,1.425,3.117,3.784c0.014,2.473,0.003,4.945,0.003,7.517h4.479
		c0-2.766-0.038-5.466,0.013-8.167c0.036-1.853,1.321-3.128,3.012-3.139c1.68-0.011,2.943,1.259,3.055,3.113
		c0.046,0.749,0.017,1.503,0.019,2.255c0.001,1.953,0,3.905,0,5.933c0.932,0.067,1.665,0.121,2.356,0.17
		c0,3.813,0.246,7.618-0.123,11.363c-0.144,1.456-1.43,3.045-2.617,4.104c-2.576,2.295-4.063,4.852-3.914,8.42
		c0.173,4.101,0.027,8.213,0.05,12.321c0.003,0.805-0.05,1.372-1.01,1.698c-1.271,0.43-1.514,1.58-1.51,2.835
		c0.021,6.538,0.018,13.075,0.008,19.612c-0.008,5.169-2.884,8.022-8.086,8.024c-12.265,0.007-24.529,0.006-36.794,0
		c-4.371,0-6.357-1.444-7.981-5.535c-0.179-0.453-1.104-0.862-1.688-0.869c-5.901-0.064-11.802-0.038-17.702-0.039
		c-4.5-0.002-6.482-1.962-6.483-6.408c-0.005-15.04-0.013-30.079-0.014-45.119c-0.001-11.047,0.006-22.094,0.014-33.14
		c0.002-4.23,2.021-6.241,6.287-6.254C66.43,54.234,70.411,54.245,74.575,54.245 M83.494,141.996c6.886,0,13.77,0.001,20.655-0.002
		c2.968-0.001,3.453-0.479,3.453-3.399c0.003-15.673,0.001-31.348,0.001-47.021c0-10.241,0.003-20.482-0.001-30.723
		c0-2.973-0.457-3.435-3.416-3.436c-13.77-0.002-27.539-0.002-41.31,0c-3.103,0-3.565,0.479-3.565,3.66c0,24.354,0,48.706,0,73.06
		c0,1.563-0.004,3.123,0.002,4.686c0.01,2.531,0.632,3.165,3.178,3.169C69.491,141.999,76.493,141.994,83.494,141.996
		 M124.752,85.661c0,2.36-0.016,4.55,0.005,6.738c0.017,1.889,0.687,3.416,2.235,4.646c3.171,2.522,4.79,5.814,4.656,9.952
		c-0.097,3.005-0.022,6.016-0.027,9.024c-0.003,1.186,0.174,2.331,1.666,2.338c1.482,0.007,1.689-1.097,1.681-2.309
		c-0.02-3.066,0.016-6.133-0.017-9.198c-0.043-4.021,1.518-7.224,4.581-9.84c0.952-0.813,1.954-2.079,2.089-3.236
		c0.308-2.654,0.097-5.369,0.097-8.117L124.752,85.661L124.752,85.661z"/>
	<polygon fill="#FFFFFF" points="89.491,67.238 89.491,70.368 85.065,70.368 85.065,74.895 81.944,74.895 81.944,70.454 
		77.417,70.454 77.417,67.342 81.846,67.342 81.846,62.825 84.962,62.825 84.962,67.238 	"/>
	<path fill="#FFFFFF" d="M78.351,117.932c1.539-4.694,3.034-9.404,4.672-14.064c0.194-0.553,1.12-1.089,1.776-1.188
		c1.233-0.188,2.516-0.055,4.179-0.055c-3.538,5.306-6.921,10.379-10.305,15.457L78.351,117.932z"/>
	<path fill="#FFFFFF" d="M77.98,102.64c3.568-5.532,6.886-10.677,10.204-15.822c0.109,0.046,0.219,0.092,0.328,0.138
		c-0.387,1.226-0.764,2.458-1.163,3.68c-1.073,3.283-2.211,6.544-3.213,9.85c-0.483,1.594-1.253,2.458-3.041,2.175
		C80.255,102.531,79.379,102.64,77.98,102.64"/>
	<rect x="77.411" y="129.849" fill="#FFFFFF" width="12.101" height="2.898"/>
</g>
</svg>
