<?xml version="1.0" encoding="utf-8"?>
<!-- Generator: Adobe Illustrator 16.0.0, SVG Export Plug-In . SVG Version: 6.00 Build 0)  -->
<!DOCTYPE svg PUBLIC "-//W3C//DTD SVG 1.1//EN" "http://www.w3.org/Graphics/SVG/1.1/DTD/svg11.dtd">
<svg version="1.1" id="Layer_1" xmlns="http://www.w3.org/2000/svg" xmlns:xlink="http://www.w3.org/1999/xlink" x="0px" y="0px"
	 width="200px" height="200px" viewBox="0 0 200 200" enable-background="new 0 0 200 200" xml:space="preserve">
<g>
	<path fill="#F1F2F2" stroke="#FFFFFF" stroke-width="2" stroke-miterlimit="10" d="M104.2,91.865v-0.834
		c0-11.289-0.004-22.577,0.001-33.865c0.002-3.509,2.286-6.301,5.701-6.894c2.182-0.378,4.125,0.219,5.78,1.704
		c0.137,0.123,0.272,0.249,0.412,0.373c0.013,0.012,0.034,0.014,0.114,0.045c0.05-0.347,0.091-0.681,0.144-1.014
		c0.544-3.527,3.592-5.939,7.272-5.763c3.365,0.161,6.162,2.97,6.347,6.411c0.049,0.922,0.007,1.85,0.007,2.905
		c0.219-0.17,0.33-0.247,0.426-0.336c2.201-2.021,4.736-2.564,7.479-1.407c2.772,1.171,4.153,3.413,4.182,6.412
		c0.041,4.258,0.011,8.518,0.011,12.776v0.711c0.181-0.146,0.291-0.222,0.385-0.314c2.037-1.973,4.912-2.532,7.482-1.452
		c2.548,1.073,4.194,3.572,4.194,6.373c0.002,8.238-0.012,16.477,0.005,24.715c0.011,5.181-1.291,9.99-3.946,14.441
		c-1.124,1.882-2.215,3.784-3.304,5.688c-1.103,1.927-1.679,4-1.672,6.227c0.003,0.947,0.01,1.896-0.006,2.844
		c-0.005,0.311,0.079,0.445,0.412,0.519c1.266,0.283,2.039,1.261,2.047,2.567c0.012,1.933,0.012,3.868-0.002,5.802
		c-0.011,1.581-1.095,2.646-2.683,2.647c-12.144,0.001-24.288,0-36.431-0.003c-1.676,0-2.705-1.03-2.713-2.713
		c-0.005-1.88-0.005-3.758,0-5.636c0.008-1.519,0.761-2.412,2.252-2.734c0.16-0.034,0.401-0.244,0.405-0.375
		c0.018-1.765,0.02-3.533-0.02-5.299c-0.021-0.93-0.399-1.76-0.906-2.537c-6.183-9.505-12.359-19.012-18.532-28.522
		c-1.883-2.902-1.282-6.504,1.402-8.504c2.243-1.672,5.316-1.624,7.568,0.14c1.844,1.446,3.668,2.915,5.504,4.373
		C103.7,91.481,103.888,91.623,104.2,91.865 M115.865,101.343c-1.616-1.906-3.35-3.971-5.106-6.014
		c-0.376-0.437-0.536-0.889-0.535-1.465c0.014-9.746,0.009-19.492,0.009-29.237c0-0.129-0.006-0.261,0.005-0.391
		c0.031-0.48,0.364-0.823,0.803-0.836c0.466-0.014,0.822,0.333,0.844,0.846c0.018,0.427,0.006,0.855,0.006,1.283
		c0,9.299-0.002,18.598,0.01,27.897c0,0.295,0.053,0.662,0.229,0.873c1.672,2.018,3.374,4.013,5.082,6.003
		c0.111,0.13,0.331,0.235,0.503,0.237c1.263,0.013,2.527-0.007,3.791-0.013c0.786-0.003,0.786-0.001,0.786-0.776
		c0.001-13.558,0-27.116,0.004-40.674c0-0.239-0.006-0.49,0.062-0.716c0.121-0.405,0.438-0.597,0.855-0.556
		c0.419,0.04,0.679,0.284,0.728,0.712c0.02,0.166,0.015,0.334,0.015,0.502c0,13.464,0,26.93,0,40.395
		c0,0.206,0.017,0.41-0.003,0.614c-0.034,0.388,0.124,0.51,0.515,0.507c2.418-0.016,4.834-0.013,7.253,0.002
		c0.362,0.001,0.517-0.128,0.628-0.465c0.467-1.431,0.905-2.875,1.465-4.269c0.506-1.261,0.654-2.539,0.59-3.871
		c-0.036-0.761-0.029-1.524-0.029-2.287c-0.01-7.792-0.016-15.585-0.021-23.378c0-0.65-0.011-1.302,0.006-1.953
		c0.016-0.56,0.362-0.915,0.848-0.912c0.48,0.001,0.82,0.369,0.839,0.925c0.007,0.222-0.019,0.445-0.019,0.668
		c-0.018,9.448-0.042,18.896-0.044,28.343c0,0.887-0.121,1.722-0.432,2.555c-0.507,1.356-0.926,2.746-1.424,4.109
		c-0.191,0.527-0.311,0.953,0.29,1.306c0.206,0.12,0.393,0.384,0.451,0.616c0.146,0.587,0.243,1.189,0.301,1.788
		c0.049,0.499,0.011,1.005,0.011,1.628c0.195-0.176,0.269-0.23,0.331-0.297c3.53-3.648,7.06-7.296,10.573-10.961
		c0.178-0.186,0.279-0.521,0.281-0.788c0.017-3.998,0.013-7.997,0.013-11.996c0-0.204-0.012-0.412,0.021-0.612
		c0.066-0.423,0.468-0.715,0.888-0.674c0.491,0.047,0.75,0.4,0.752,1.052c0.003,4.259,0.014,8.519-0.021,12.778
		c-0.003,0.396-0.219,0.881-0.495,1.171c-3.96,4.139-7.943,8.251-11.932,12.364c-0.292,0.298-0.425,0.6-0.42,1.024
		c0.017,2.79,0.009,5.58,0.008,8.37c0,1.986-0.837,2.884-2.824,3.031c-0.054,0.005-0.106,0.028-0.191,0.054v12.134h11.361
		c0-0.939,0.006-1.831-0.001-2.723c-0.019-2.854,0.659-5.516,2.14-7.972c0.958-1.592,1.845-3.226,2.812-4.814
		c2.511-4.119,3.961-8.554,3.972-13.401c0.019-8.462,0.008-16.925-0.006-25.387c0-0.514-0.069-1.045-0.215-1.536
		c-0.719-2.452-3.168-4.007-5.687-3.652c-2.525,0.356-4.441,2.513-4.455,5.08c-0.02,4.129-0.005,8.258-0.008,12.387
		c0,0.203,0.007,0.412-0.031,0.61c-0.088,0.443-0.37,0.676-0.825,0.674c-0.465,0-0.722-0.265-0.81-0.694
		c-0.039-0.198-0.02-0.408-0.021-0.611c-0.001-10.006-0.001-20.013-0.001-30.018c0-0.297,0.004-0.596-0.016-0.893
		c-0.187-2.909-3.063-5.181-5.937-4.69c-2.674,0.457-4.433,2.554-4.436,5.328c-0.007,10.024-0.004,20.049-0.005,30.074
		c0,0.223,0.009,0.448-0.016,0.668c-0.051,0.481-0.337,0.739-0.813,0.739c-0.481,0-0.761-0.269-0.829-0.736
		c-0.028-0.182-0.012-0.372-0.012-0.557c-0.002-12.219,0-24.438-0.002-36.658c0-0.353,0.007-0.707-0.009-1.06
		c-0.106-2.576-2.339-4.79-4.918-4.878c-3.081-0.105-5.466,2.225-5.466,5.352c-0.003,12.424-0.001,24.848-0.001,37.271
		c0,0.223,0.009,0.449-0.024,0.668c-0.062,0.453-0.345,0.687-0.798,0.695c-0.457,0.008-0.735-0.238-0.823-0.673
		c-0.043-0.216-0.023-0.443-0.023-0.668c0-10.898,0.004-21.797-0.006-32.696c0-0.497-0.043-1.009-0.164-1.488
		c-0.645-2.521-3.134-4.209-5.652-3.865c-2.668,0.366-4.572,2.557-4.573,5.275c0,12.647,0,25.294,0,37.94
		c0,0.242,0.014,0.487-0.018,0.724c-0.058,0.454-0.34,0.694-0.79,0.707c-0.448,0.011-0.736-0.221-0.834-0.663
		c-0.029-0.125-0.042-0.264-0.018-0.388c0.203-1.062-0.271-1.721-1.114-2.351c-2.084-1.556-4.076-3.241-6.135-4.833
		c-2.188-1.693-5.25-1.168-6.651,1.153c-1.092,1.809-0.804,3.544,0.328,5.278c6.16,9.432,12.288,18.883,18.425,28.329
		c0.76,1.169,1.134,2.452,1.132,3.85c-0.004,1.505-0.003,3.012,0,4.519c0,0.195,0.016,0.395,0.022,0.577h8.322v-12.134
		c-0.097-0.023-0.149-0.046-0.203-0.05c-1.957-0.129-2.821-1.061-2.819-3.04c0-2.064-0.014-4.13,0.012-6.194
		c0.004-0.464-0.127-0.677-0.589-0.819c-2.897-0.881-5.789-1.781-8.669-2.717c-0.416-0.134-0.841-0.417-1.12-0.75
		c-2.55-3.03-5.068-6.088-7.594-9.138c-0.521-0.629-1.055-1.251-1.559-1.896c-0.296-0.379-0.24-0.876,0.081-1.162
		c0.356-0.317,0.826-0.291,1.194,0.087c0.169,0.172,0.314,0.367,0.469,0.551c2.836,3.423,5.667,6.847,8.515,10.261
		c0.199,0.239,0.502,0.449,0.797,0.545c2.635,0.847,5.279,1.666,7.92,2.49c0.153,0.049,0.313,0.082,0.543,0.141v-0.665
		c0-1.284-0.036-2.569,0.014-3.851C115.552,102.941,115.726,102.243,115.865,101.343 M126.79,141.491v-0.003
		c6.024,0,12.048,0.002,18.07-0.002c0.802,0,1.13-0.307,1.137-1.104c0.015-1.858,0.015-3.718-0.001-5.576
		c-0.008-0.761-0.345-1.077-1.107-1.077c-12.084-0.003-24.168-0.001-36.252,0.001c-0.823,0-1.128,0.317-1.13,1.161
		c-0.005,1.785-0.002,3.57-0.001,5.354c0.001,0.972,0.28,1.247,1.27,1.247C114.782,141.491,120.787,141.491,126.79,141.491
		 M125.391,118.133c2.268,0,4.535,0,6.804-0.001c1.008,0,1.309-0.29,1.309-1.286c0.004-4.444,0.004-8.887,0.001-13.331
		c0-1.051-0.284-1.33-1.319-1.33c-4.573-0.003-9.147-0.003-13.722,0c-0.979,0-1.266,0.283-1.266,1.256
		c-0.001,4.463-0.001,8.924,0,13.385c0,1.043,0.266,1.306,1.331,1.307C120.816,118.133,123.104,118.132,125.391,118.133
		 M120.265,131.986h4.208v-12.15h-4.208V131.986z M130.394,119.826h-4.179v12.176h4.179V119.826z"/>
	<path fill="#F1F2F2" stroke="#FFFFFF" stroke-miterlimit="10" d="M53.005,144.993h-6.184c-0.527,0-0.959-0.431-0.959-0.96
		c0-0.526,0.432-0.958,0.959-0.958h6.183c0.528,0,0.959,0.432,0.959,0.958C53.963,144.563,53.532,144.993,53.005,144.993"/>
	<path fill="#F1F2F2" stroke="#FFFFFF" stroke-miterlimit="10" d="M53.005,144.993h-6.184c-0.527,0-0.959-0.431-0.959-0.96
		c0-0.526,0.432-0.958,0.959-0.958h6.183c0.528,0,0.959,0.432,0.959,0.958C53.963,144.563,53.532,144.993,53.005,144.993"/>
	<path fill="#F1F2F2" stroke="#FFFFFF" stroke-miterlimit="10" d="M66.404,144.993h-6.182c-0.528,0-0.959-0.431-0.959-0.96
		c0-0.526,0.431-0.958,0.959-0.958h6.182c0.528,0,0.959,0.432,0.959,0.958C67.363,144.563,66.932,144.993,66.404,144.993"/>
	<path fill="#F1F2F2" stroke="#FFFFFF" stroke-miterlimit="10" d="M79.853,144.993H73.67c-0.527,0-0.959-0.431-0.959-0.96
		c0-0.526,0.432-0.958,0.959-0.958h6.183c0.528,0,0.96,0.432,0.96,0.958C80.813,144.563,80.381,144.993,79.853,144.993"/>
	<path fill="#F1F2F2" stroke="#FFFFFF" stroke-miterlimit="10" d="M53.005,50.323h-6.184c-0.527,0-0.959-0.431-0.959-0.959
		c0-0.527,0.432-0.959,0.959-0.959h6.183c0.528,0,0.959,0.432,0.959,0.959C53.963,49.892,53.532,50.323,53.005,50.323"/>
	<path fill="#F1F2F2" stroke="#FFFFFF" stroke-miterlimit="10" d="M53.005,50.323h-6.184c-0.527,0-0.959-0.431-0.959-0.959
		c0-0.527,0.432-0.959,0.959-0.959h6.183c0.528,0,0.959,0.432,0.959,0.959C53.963,49.892,53.532,50.323,53.005,50.323"/>
	<path fill="#F1F2F2" stroke="#FFFFFF" stroke-miterlimit="10" d="M66.404,50.323h-6.182c-0.528,0-0.959-0.431-0.959-0.959
		c0-0.527,0.431-0.959,0.959-0.959h6.182c0.528,0,0.959,0.432,0.959,0.959C67.363,49.892,66.932,50.323,66.404,50.323"/>
	<path fill="#F1F2F2" stroke="#FFFFFF" stroke-miterlimit="10" d="M79.853,50.323H73.67c-0.527,0-0.959-0.431-0.959-0.959
		c0-0.527,0.432-0.959,0.959-0.959h6.183c0.528,0,0.96,0.432,0.96,0.959C80.813,49.892,80.381,50.323,79.853,50.323"/>
	<path fill="none" stroke="#FFFFFF" stroke-width="5" stroke-miterlimit="10" d="M70.042,111.87H54.69
		c-1.408,0-2.559-1.152-2.559-2.559V83.013c0-1.407,1.151-2.559,2.559-2.559h15.352c1.408,0,2.559,1.151,2.559,2.559v26.298
		C72.601,110.718,71.45,111.87,70.042,111.87z"/>
	<line fill="none" stroke="#FFFFFF" stroke-width="5" stroke-miterlimit="10" x1="62.21" y1="111.87" x2="62.21" y2="131.838"/>
	<polyline fill="#F1F2F2" stroke="#FFFFFF" stroke-width="5" stroke-linecap="round" stroke-miterlimit="10" points="
		54.254,124.514 62.21,132.341 70.384,124.152 	"/>
	<line fill="none" stroke="#FFFFFF" stroke-width="5" stroke-miterlimit="10" x1="62.108" y1="80.171" x2="62.108" y2="60.203"/>
	<polyline fill="#F1F2F2" stroke="#FFFFFF" stroke-width="5" stroke-linecap="round" stroke-miterlimit="10" points="70.396,67.434 
		62.108,59.274 53.965,67.431 	"/>
</g>
</svg>
