<?xml version="1.0" encoding="utf-8"?>
<!-- Generator: Adobe Illustrator 24.0.1, SVG Export Plug-In . SVG Version: 6.00 Build 0)  -->
<svg version="1.1" id="Layer_1" xmlns="http://www.w3.org/2000/svg" xmlns:xlink="http://www.w3.org/1999/xlink" x="0px" y="0px"
	 viewBox="0 0 286.8 285.9" style="enable-background:new 0 0 286.8 285.9;" xml:space="preserve">
<style type="text/css">
	.st0{fill:none;stroke:#1D2E4A;stroke-width:5;stroke-miterlimit:10;}
</style>
<title>10K</title>
<path class="st0" d="M214.7,170.1c-8.7,1.8-17.7,3.5-26.7,5.6c-4,0.9-6.4-0.3-8.4-4.1c7.7-7.5,12.7-16.3,13-27.5
	s-4.1-20.3-11.5-28.2c2.2-4,5-6.2,9.5-5.2c8.1,1.8,16.1,3.7,24.3,5.5c-4.6-6.6-11.3-11-19.7-14.8c2.9-2.9,5.1-5.5,7.8-7.6
	c0.9-0.7,3.2-0.4,4.4,0.3c15.4,9,24.9,22.2,28.1,39.8c0.3,1.6,0.6,3.2,0,4c3.5-4.7,6.6-9.9,10.7-14c4.6-4.5,10.8-5.9,17.2-5
	c13.3,1.9,21.4,11.8,21.2,25.3c-0.2,11.7-9.3,21.3-21.7,22.9c-11.7,1.5-22.4-6.6-26.3-20.4c-0.7,3.4-1.3,6.3-2,9.2
	c-3.7,16-13.3,27.6-27.2,36c-3.4,2.1-6.2,2.5-9-1.1c-1.4-1.8-3.5-2.9-6.3-5.1C202,181.9,209.6,177.1,214.7,170.1z"/>
<path class="st0" d="M186.3,91l-15-19.7l-1,0.8c1.9,7.8,3.9,15.5,5.5,23.3c0.5,2.2,0.2,4.5-0.7,6.6c-1.6,2.8-3.6,4.5-7.3,1.2
	C153.4,90.7,132,91,118,103.9c-1.2,1.1-3,1.7-4.5,2.5c-1-1.9-3.2-4-2.9-5.8c1.4-8.5,3.4-16.8,5.3-25.2c0.5-1.5,1.1-3,1.8-4.4
	c-8.6,6.3-13.4,13.4-16.8,23.1c-3.1-3.1-6-5.5-8.1-8.4c-0.7-1,0.1-3.5,0.9-5c8.7-15.8,22-25.5,39.8-28.9c0.8-0.2,1.7-0.2,2.5-0.4
	s1.8-0.5,2.8-0.8c-15.2-6.1-21.8-16-19-29.1C122.3,9.7,133,1.6,145,2.5c10.3,0.6,20.5,8.8,22.1,19.1c2,13.1-4,24.5-19.5,28.9
	c3.5,0.8,6.4,1.4,9.3,2.1c14.9,3.5,26,12.2,34.4,24.7c2.8,4.1,3.1,7.4-1.3,10.5C188.6,88.7,187.4,89.8,186.3,91z"/>
<path class="st0" d="M50.5,139.4c0.7-3.5,1.3-6.6,2-9.7c3.5-14.5,11.8-25.4,24-33.8c3.6-2.5,6.1-2.4,8.9,0.9c1.2,1.5,3.2,2.4,5,3.6
	l-19.1,15.2l0.7,0.8c6.5-1.7,13-3.1,19.4-5.1c6-1.9,10,0.1,13.2,5.4c-14.2,18.2-14,36.3,1.4,53.8c-4.5,6.3-3.1,5.8-13.2,4.3
	c-7-1-13.7-3.5-20.9-5.4c5.1,7,11.8,11.7,21,15.4c-3.4,3.1-5.7,5.6-8.5,7.5c-1,0.7-3.2,0.3-4.4-0.4c-15.5-9.1-25.2-22.3-28.3-40.2
	c-0.1-0.8-0.2-1.7-0.3-2.5c-0.2-0.7-0.5-1.4-0.8-2.1c-3.1,14.7-16.3,21.3-26.6,19.9c-12.9-1.7-21.3-11.5-21.3-24.2s8.7-22.3,21.5-24
	C35.7,117.3,46.5,125.4,50.5,139.4z"/>
<path class="st0" d="M100.8,195.5l14.9,19.2l0.8-0.8c-1.9-7.8-3.8-15.7-5.7-23.5c-0.9-2.9,0.2-6.1,2.6-8c1.9-1.7,3.1-1.6,5,0
	c16,12.7,32.5,13,48.9,1l2.2-1.6c4.2,2.8,7.8,5.4,5.9,11.5c-2.1,7-3.6,14.1-4.5,21.3l14.3-17.6c2.4,2.1,4.7,4.3,6.8,6.7
	c0.7,0.8,0.2,3.2-0.6,4.4c-8.8,14.2-21.4,22.9-37.8,26.3c-1.9,0.4-3.8,0.7-6.1,1c15.6,6.3,22,16,19.4,29.2
	c-2.1,10.8-12,18.8-23.3,18.8c-12,0-22.1-7.8-24.2-18.9c-2.5-13.2,3.8-22.7,19.5-29.2c-10.3-1.4-20.1-3.8-28-10.4
	c-5.8-4.8-10.6-10.8-15.8-16.5c-3-3.3-2.8-6.4,1-9.2C97.9,198.1,99.4,196.9,100.8,195.5z"/>
</svg>
