<?xml version="1.0" encoding="utf-8"?>
<!-- Generator: Adobe Illustrator 24.0.1, SVG Export Plug-In . SVG Version: 6.00 Build 0)  -->
<svg version="1.1" id="Layer_1" xmlns="http://www.w3.org/2000/svg" xmlns:xlink="http://www.w3.org/1999/xlink" x="0px" y="0px"
	 viewBox="0 0 28 32" style="enable-background:new 0 0 28 32;" xml:space="preserve">
<style type="text/css">
	.st0{fill:#1D2E4A;}
</style>
<title>25</title>
<path class="st0" d="M4.5,24h-1C3.2,24,3,24.2,3,24.5S3.2,25,3.5,25h1C4.8,25,5,24.8,5,24.5S4.8,24,4.5,24z M4.5,26h-1
	C3.2,26,3,26.2,3,26.5S3.2,27,3.5,27h1C4.8,27,5,26.8,5,26.5S4.8,26,4.5,26z M4.5,28h-1C3.2,28,3,28.2,3,28.5S3.2,29,3.5,29h1
	C4.8,29,5,28.8,5,28.5S4.8,28,4.5,28z M20,9h3c0.8,0,1.5-0.7,1.5-1.5S23.8,6,23,6h-1c-0.3,0-0.5,0.2-0.5,0.5S21.7,7,22,7h1
	c0.3,0,0.5,0.2,0.5,0.5S23.3,8,23,8h-3c-0.3,0-0.5-0.2-0.5-0.5S19.3,7,19,7s-0.5,0.2-0.5,0.5C18.5,8.3,19.2,9,20,9z M1,8
	c0.3,0,0.5-0.2,0.5-0.5V6.7C1.5,5.2,2.7,4,4.2,4H13c1.4,0,2.5-1.1,2.5-2.5v-1C15.5,0.2,15.3,0,15,0s-0.5,0.2-0.5,0.5v1
	C14.5,2.3,13.8,3,13,3H4.2C2.2,3,0.5,4.7,0.5,6.7v0.8C0.5,7.8,0.7,8,1,8z M7.5,8v0.5C7.5,8.8,7.7,9,8,9s0.5-0.2,0.5-0.5V8
	c0-1.1,0.9-2,2-2H16c0.3,0,0.5,0.2,0.5,0.5S16.3,7,16,7s-0.5,0.2-0.5,0.5S15.7,8,16,8c0.8,0,1.5-0.7,1.5-1.5S16.8,5,16,5h-5.5
	C8.8,5,7.5,6.3,7.5,8z M5,7C4.7,7,4.5,7.2,4.5,7.5S4.7,8,5,8c0.8,0,1.5-0.7,1.5-1.5S5.8,5,5,5H4C3.2,5,2.5,5.7,2.5,6.5
	C2.5,6.8,2.7,7,3,7s0.5-0.2,0.5-0.5S3.7,6,4,6h1c0.3,0,0.5,0.2,0.5,0.5S5.3,7,5,7z M20,4h5c0.8,0,1.5-0.7,1.5-1.5S25.8,1,25,1h-1
	c-0.3,0-0.5,0.2-0.5,0.5S23.7,2,24,2h1c0.3,0,0.5,0.2,0.5,0.5S25.3,3,25,3h-5c-0.3,0-0.5,0.2-0.5,0.5S19.7,4,20,4z M20.5,19h-1
	c-0.3,0-0.5,0.2-0.5,0.5s0.2,0.5,0.5,0.5h1c0.3,0,0.5-0.2,0.5-0.5S20.8,19,20.5,19z M24.5,21h-1c-0.3,0-0.5,0.2-0.5,0.5
	s0.2,0.5,0.5,0.5h1c0.3,0,0.5-0.2,0.5-0.5S24.8,21,24.5,21z M20.5,21h-1c-0.3,0-0.5,0.2-0.5,0.5s0.2,0.5,0.5,0.5h1
	c0.3,0,0.5-0.2,0.5-0.5S20.8,21,20.5,21z M24.5,19h-1c-0.3,0-0.5,0.2-0.5,0.5s0.2,0.5,0.5,0.5h1c0.3,0,0.5-0.2,0.5-0.5
	S24.8,19,24.5,19z M16.5,19h-1c-0.3,0-0.5,0.2-0.5,0.5s0.2,0.5,0.5,0.5h1c0.3,0,0.5-0.2,0.5-0.5S16.8,19,16.5,19z M26.5,16H25v-1.5
	c0-0.8-0.7-1.5-1.5-1.5h-7c-0.8,0-1.5,0.7-1.5,1.5V16h-1.5c-0.8,0-1.5,0.7-1.5,1.5V21h-2l-0.4-8.4c0,0,0-0.1,0-0.1c0,0,0-0.1,0-0.1
	l-0.1-1.9C9.5,10.2,9.3,10,9,10c0,0,0,0,0,0H7c-0.3,0-0.5,0.2-0.5,0.5l-0.1,1.9c0,0,0,0.1,0,0.1c0,0,0,0.1,0,0.1L6,21H4l-0.4-9.5
	l0,0l0,0l-0.1-2C3.5,9.3,3.3,9,3.1,9C3,9,3,9,3,9H1C0.7,9,0.5,9.2,0.5,9.5l-0.1,2l0,0l0,0L0,21.5l0,0v9C0,31.3,0.7,32,1.5,32
	c0,0,0,0,0,0h25c0.8,0,1.5-0.7,1.5-1.5v-13C28,16.7,27.3,16,26.5,16z M16,14.5c0-0.3,0.2-0.5,0.5-0.5h7c0.3,0,0.5,0.2,0.5,0.5V16h-8
	V14.5z M7.5,11h1v1h-1L7.5,11z M7.4,13h1.2L9,21H7L7.4,13z M1.5,10h1v1h-1L1.5,10z M1.4,12h1.2L3,21H1L1.4,12z M15,31H1.5
	C1.2,31,1,30.8,1,30.5V22h13.5c0.3,0,0.5,0.2,0.5,0.5V31z M22,31h-3v-6h3V31z M27,30.5c0,0.3-0.2,0.5-0.5,0.5H23v-6.5
	c0-0.3-0.2-0.5-0.5-0.5h-4c-0.3,0-0.5,0.2-0.5,0.5V31h-2v-8.5c0-0.2,0-0.3-0.1-0.5h0.6c0.3,0,0.5-0.2,0.5-0.5S16.8,21,16.5,21H13
	v-3.5c0-0.3,0.2-0.5,0.5-0.5h13c0.3,0,0.5,0.2,0.5,0.5V30.5z M12.5,24h-1c-0.3,0-0.5,0.2-0.5,0.5s0.2,0.5,0.5,0.5h1
	c0.3,0,0.5-0.2,0.5-0.5S12.8,24,12.5,24z M8.5,26h-1C7.2,26,7,26.2,7,26.5S7.2,27,7.5,27h1C8.8,27,9,26.8,9,26.5S8.8,26,8.5,26z
	 M8.5,28h-1C7.2,28,7,28.2,7,28.5S7.2,29,7.5,29h1C8.8,29,9,28.8,9,28.5S8.8,28,8.5,28z M8.5,24h-1C7.2,24,7,24.2,7,24.5
	S7.2,25,7.5,25h1C8.8,25,9,24.8,9,24.5S8.8,24,8.5,24z M12.5,26h-1c-0.3,0-0.5,0.2-0.5,0.5s0.2,0.5,0.5,0.5h1c0.3,0,0.5-0.2,0.5-0.5
	S12.8,26,12.5,26z M12.5,28h-1c-0.3,0-0.5,0.2-0.5,0.5s0.2,0.5,0.5,0.5h1c0.3,0,0.5-0.2,0.5-0.5S12.8,28,12.5,28z"/>
</svg>
