<?xml version="1.0" encoding="utf-8"?>
<!-- Generator: Adobe Illustrator 24.0.1, SVG Export Plug-In . SVG Version: 6.00 Build 0)  -->
<svg version="1.1" id="Layer_1" xmlns="http://www.w3.org/2000/svg" xmlns:xlink="http://www.w3.org/1999/xlink" x="0px" y="0px"
	 viewBox="0 0 397.9 397.7" style="enable-background:new 0 0 397.9 397.7;" xml:space="preserve">
<style type="text/css">
	.st0{fill:#1D2E4A;}
	.st1{font-family:'Arial-BoldMT';}
	.st2{font-size:72px;}
</style>
<title>4,500 mins</title>
<path class="st0" d="M0,193.6c1.8-4.2,5.1-5.4,9.4-5.3c11,0.1,22,0,33.5,0c3.3-39.6,18.7-73.6,47-101.2s62.5-42.1,102.4-44.5
	c0.1-1.4,0.2-2.7,0.2-4.1c0-10,0-20,0-29.9c0-6.4,2.3-8.7,8.7-8.5c59,1.3,108.2,24.1,147.4,68.1c26.2,29,42.7,65.3,47.5,104
	c7.4,58.3-7.7,110.4-45.6,155.4c-30.2,35.8-68.6,58.7-114.8,66.7c-57.5,10.1-110.5-1.5-157.2-37.3C36.9,325.1,11.7,283,2.7,231.4
	c-1.2-6.6-1.8-13.3-2.7-20L0,193.6z M56.3,202c1.4,37,14.5,68.4,38.6,94.4c4.8-4.4,9.3-8.3,13.6-12.5c4.6-4.5,8.4-5.3,11.7-2
	c3.1,3.1,2.6,7.2-1.8,11.4s-9.1,8.1-14,12.4c26.4,22.4,55.1,33.9,88.2,35.7c0-7.2,0-13.8,0-20.4s2.1-9.8,6.6-10s6.9,3.2,6.9,10
	s0,13.4,0,20.3c33-2.1,61.5-13.6,86.7-35c-1.4-1.3-2.6-2.3-3.7-3.4c-4.8-4.7-9.8-9.3-14.5-14.1c-2.7-2.5-2.9-6.6-0.4-9.4
	c0,0,0.1-0.1,0.1-0.1c2.6-2.8,6.6-3,9.8-0.3c1.1,0.9,2.1,2,3.1,3l15.3,14.8c27.4-27.7,40-68.1,38.7-94.8c-8,0-16,0-24,0
	c-5.6,0-8.6-2.4-8.6-6.7s3-7,8.8-7c6.1,0,12.2,0,18.3,0h5.6c-0.8-28.6-19.2-70.5-37.9-86.1c-1,1.1-2,2.3-3.1,3.4
	c-4.7,4.9-9.3,9.8-14.1,14.5c-2.5,2.6-6.6,2.8-9.2,0.3c-0.1-0.1-0.1-0.1-0.2-0.2c-2.7-2.6-2.9-6.3-0.3-9.4c1.3-1.6,2.8-3,4.3-4.5
	l13.3-13.8c-25.4-22-54.2-34-87.5-35.9c-0.2,0.9-0.3,1.7-0.3,2.6c0,6.7,0.1,13.5-0.1,20.2c-0.1,3.7-3.1,6.7-6.8,6.6
	c-3.5,0-6.4-2.8-6.6-6.3c-0.2-2.3-0.1-4.7-0.1-7c0-5.3,0-10.5,0-16.2c-37.3,2.2-68.6,16.2-95,42c1.2,1.2,2,2.2,2.9,3
	c4.7,4.6,9.5,9.2,14.3,13.8c5.3,5.2,6.2,8.7,2.9,12.2s-7.1,2.8-12.3-2.3c-2.7-2.6-5.4-5.2-8.1-7.8l-8.9-8.6
	c-18.4,22.7-29.5,50.4-31.6,79.6h4.6c7.3,0,14.5-0.1,21.8,0.1c4,0.1,6.6,2.6,7,6c0.5,3.4-1.7,6.5-5,7.3c-1.4,0.3-2.8,0.4-4.2,0.3
	C72.9,202.1,64.9,202,56.3,202z M14.1,202.2c-1,55.7,31.3,128.7,105.3,164c73.7,35.2,159.7,18.2,216.2-42.3
	c54.4-58.3,64.3-146.2,23.8-217.4c-19.5-34.3-47.7-59.6-83.6-76.2c-21.8-10.2-45.5-15.8-69.6-16.5v28.7
	c85.5,4.2,152.4,76.9,148.9,162.9c-3.2,77.6-64.5,144.4-146.6,149.5c-38,2.4-72.7-7.8-103-30.8c-40.2-30.5-60.8-71.6-63.2-122
	L14.1,202.2z"/>
<path class="st0" d="M206,120.3c0,4.4,0.1,44.3,0,48.7c-0.1,4.2-2.9,7.1-6.6,7.1s-6.7-2.8-6.8-7c-0.1-9.1-0.1-53.6,0-62.7
	c-0.1-3.7,2.8-6.7,6.5-6.8c0,0,0.1,0,0.1,0c3.7-0.1,6.7,2.9,6.8,7C206.1,111.3,206,115.8,206,120.3z"/>
<path class="st0" d="M117.5,202c-2.3,0-4.7,0.1-7,0c-3.5-0.1-6.4-2.9-6.5-6.4c-0.4-3.5,2.2-6.7,5.7-7.1c0.1,0,0.3,0,0.4,0
	c4.9-0.3,9.8-0.3,14.7,0c3.5,0.2,6.3,3.2,6.3,6.7c0,3.7-3,6.7-6.7,6.8C122.2,202.1,119.8,202,117.5,202z"/>
<text transform="matrix(1 0 0 1 125.05 227.66)" class="st0 st1 st2">4500</text>
</svg>
