<?xml version="1.0" encoding="utf-8"?>
<!-- Generator: Adobe Illustrator 24.0.1, SVG Export Plug-In . SVG Version: 6.00 Build 0)  -->
<svg version="1.1" id="Layer_1" xmlns="http://www.w3.org/2000/svg" xmlns:xlink="http://www.w3.org/1999/xlink" x="0px" y="0px"
	 viewBox="0 0 422 488.1" style="enable-background:new 0 0 422 488.1;" xml:space="preserve">
<style type="text/css">
	.st0{fill:#1D2E4A;}
</style>
<title>50%</title>
<path class="st0" d="M422,65.6c-0.1,0.2-0.2,0.4-0.2,0.7c-0.6,4.1-4.4,7-8.5,6.4c-3.6-0.5-6.3-3.5-6.5-7.2c0-10.3,0-20.7,0-31
	c0.2-4.2,3.7-7.4,7.8-7.2c3.6,0.2,6.6,2.9,7.2,6.5c0.1,0.3,0.1,0.5,0.2,0.8L422,65.6z"/>
<path class="st0" d="M0,422.6c0.1-0.2,0.2-0.4,0.2-0.7c0.6-4.1,4.4-7,8.5-6.4c3.6,0.5,6.3,3.5,6.5,7.2c0,10.3,0,20.7,0,31
	c-0.2,4.2-3.7,7.4-7.8,7.2c-3.6-0.1-6.7-2.9-7.2-6.5c-0.1-0.3-0.1-0.5-0.2-0.8C0,443.2,0,432.9,0,422.6z"/>
<path class="st0" d="M116.3,283.4V373h1.3c42.9,0,85.7,0.1,128.6,0c15,0,28.4-5,40.3-14.1c15-11.4,29.9-22.9,44.9-34.3
	c5-3.8,6.9-8.9,5.5-15s-5.4-9.6-11.4-10.8c-3.9-0.8-7.9,0.1-11.1,2.5c-7.6,5.4-15.3,10.8-22.9,16.2c-3.9,2.8-9,1.8-11.2-2.2
	c-1.9-3.3-1-7.6,2.1-9.8c8.1-5.8,16-11.7,24.3-17.1c13.5-9,31.8-5.4,40.9,8.1c2.5,3.7,4.1,7.9,4.7,12.3c1.5,11.1-2.2,20.6-11,27.5
	c-15.5,12.1-31.1,24-46.9,35.8c-11.1,8.3-24.1,13.6-37.9,15.3c-3.6,0.5-7.3,0.7-11,0.8c-61.5,0-123.1,0-184.6,0
	c-3.5,0-6.2-1.4-7.6-4.6c-0.4-1.1-0.7-2.2-0.7-3.4c0-34.6,0-69.2,0-103.7c0-4.9,3.2-8,8.1-8c6.9,0,13.8,0,20.6,0
	c4.2,0,7.5,3.4,7.5,7.6c0,3.3-2.3,6.3-5.5,7.2c-0.9,0.2-1.8,0.3-2.7,0.3c-4.2,0-8.4,0-12.7,0v89.5h33.3v-1.8c0-31.5,0-63,0-94.5
	c-0.2-4.5,3.3-8.3,7.8-8.5c0.2,0,0.5,0,0.7,0c19.2,0.1,38.4,0,57.6,0.1c12.8-0.1,25.1,4.9,34.1,14c6.2,6.1,14.5,9.5,23.2,9.5
	c5.4,0.1,10.8-0.1,16.3,0.1c12.4,0.4,23.4,10.1,25.5,22.4c2.8,17.2-8.8,33.3-26,36.1c-0.6,0.1-1.2,0.2-1.8,0.2
	c-1.4,0.1-2.7,0.2-4.1,0.2c-17.2,0-34.4,0-51.6,0c-4.2,0.2-7.7-3.1-7.8-7.3c-0.2-4.2,3.1-7.7,7.3-7.8c1.3,0,2.5,0,3.8,0h49
	c7.6,0.1,14.3-5,16.2-12.4c2.3-8.9-3.5-16.4-12.7-16.4c-5.2,0-10.3,0.1-15.5-0.1c-12.6-0.4-23.4-5.2-32.5-14
	c-6.1-6-14.3-9.4-22.9-9.4c-16.6-0.1-33.2,0-49.8,0L116.3,283.4z"/>
<path class="st0" d="M112.2,430.3v15.6h236c3.9,0,6.9,2.2,7.7,5.8c0.2,0.8,0.2,1.6,0.2,2.5c0,3.4,0,6.8,0,10.3c0,0.4,0,0.9,0,1.7
	l40.5-28c-0.5-0.4-0.9-0.7-1.4-1l-50.6-34.9c-4.4-3-5-8.5-1.4-12c2.7-2.6,6.8-2.8,9.8-0.6c6.7,4.6,13.4,9.3,20.1,13.9l40.7,28.1
	c4.9,3.4,4.9,9.6,0,13c-20.3,14-40.6,28-60.8,42c-2.3,1.8-5.5,2-8,0.6c-2.6-1.3-4.1-4-4-6.8c0-6,0-11.9,0-17.9v-1.5H105.2
	c-5.1,0-8.2-3.1-8.2-8.2c0-9.9,0-19.7,0-29.6c0-4.9,3.1-8.1,8-8.1h243.1c4.2-0.2,7.7,3,8,7.1c0.1,2.3-0.8,4.5-2.5,6
	c-1.2,1.1-2.8,1.8-4.5,1.9c-0.6,0-1.3,0-1.9,0L112.2,430.3L112.2,430.3z"/>
<path class="st0" d="M81,27.1h235.8c5.2,0,8.2,3.1,8.2,8.2c0,9.9,0,19.7,0,29.6c0,4.8-3.2,8-8,8H73.9c-4,0-6.9-2.1-7.8-5.7
	c-0.9-3.3,0.7-6.9,3.7-8.5c1-0.4,2-0.7,3.1-0.9c0.6-0.1,1.2-0.1,1.7,0h235.1V42.2h-2c-77.8,0-155.6,0-233.5,0
	c-4.4,0-8.6-2.8-8.4-8.5c0.1-3.8,0-7.6,0-11.7L25.3,50c1.3,0.9,2.4,1.7,3.6,2.5C45.1,63.7,61.2,74.9,77.4,86c2.6,1.6,4,4.5,3.5,7.5
	c-0.3,2.9-2.3,5.3-5,6.1c-2.4,0.8-5.1,0.4-7.1-1.2C59.1,91.7,49.4,85,39.6,78.3L8.3,56.6c-5.1-3.5-5.1-9.7,0-13.2L68.8,1.6
	c2.3-1.8,5.5-2.1,8.1-0.7c2.7,1.3,4.3,4.1,4.1,7c0,5.9,0,11.8,0,17.6L81,27.1z"/>
<path class="st0" d="M225.5,86.8c26.7,0.4,52.5,10.4,74,30.7c18.2,17.1,29.6,38.1,33.4,62.7c5.7,36.3-4.2,68.1-28.9,95.3
	c-5.4,5.9-11.5,11.1-18.2,15.6c-3.3,2.5-8.1,1.8-10.6-1.5c-2.5-3.3-1.8-8.1,1.5-10.6c0.2-0.1,0.3-0.2,0.5-0.3
	c16.9-11.5,29.8-28.2,36.6-47.5c4.8-13.2,6.6-27.2,5.2-41.1c-2-23.2-12.3-44.8-29.2-60.8c-14-13.9-32-22.9-51.5-25.9
	c-31.1-4.8-58.5,3.5-81.7,24.8c-16.4,15-26.2,33.8-29.6,55.8c-3.2,20.1,0,40.6,9.4,58.7c2.5,4.9,0.1,10.2-5.1,11.3
	c-3.3,0.7-6.6-0.9-8.1-3.9c-8.5-16.4-12.8-34.7-12.4-53.2c0.7-28.8,10.8-53.9,30.6-74.9c15.6-16.7,36-28.2,58.4-32.8
	C207.3,87.6,215,86.9,225.5,86.8z"/>
<path class="st0" d="M146.8,194.7c1.3-26.1,14.5-49.1,41.3-63.4c28-14.9,62.4-10,85.7,11.4c13.3,11.9,21.9,28.3,24.1,46
	c4.5,34.7-15.1,67.9-47.6,80.8c-3.3,1.5-7.2,0.4-9.3-2.5c-2-2.9-1.8-6.7,0.6-9.3c0.9-0.9,2-1.7,3.3-2.2c7.7-3,14.8-7.6,20.6-13.5
	c9-8.8,15-20.2,17.1-32.7c3.3-19.9-1.9-37.4-15.6-52.1c-11.4-12.3-25.8-18.6-42.6-19.1c-29.9-0.9-55.9,20.2-61.3,49.6
	c-3.5,19.9,1.6,37.5,15.2,52.4c4.1,4.5,2.4,11.3-3.1,12.9c-2.8,0.9-5.9,0-7.8-2.3c-7.2-7.7-12.8-16.8-16.3-26.8
	C148.2,215.7,146.8,207.3,146.8,194.7z"/>
<path class="st0" d="M230.2,164.7h6.5c4.2,0,7.5,3.4,7.6,7.5c0,4.2-3.4,7.5-7.5,7.6c0,0,0,0,0,0c-5.7,0-11.3,0-17,0
	c-4.3,0-7.5,2.7-8,6.5c-0.7,4.2,2.2,8.1,6.4,8.8c0.4,0.1,0.8,0.1,1.2,0.1c2.7,0,5.3,0,8,0.1c12.6,0.6,22.3,11.2,21.8,23.8
	c-0.5,10.3-7.7,19-17.8,21.2c-0.8,0.2-1.1,0.5-1,1.3c0.1,1.7,0,3.3,0,5c0,4-3.1,7.2-7,7.5c-4.1,0.4-7.6-2.7-8-6.7c0-0.1,0-0.1,0-0.2
	c-0.2-2,0-4.1,0-6.2c-0.6,0-1-0.1-1.4-0.1c-1.8,0-3.7,0-5.5,0c-4.2,0-7.5-3.4-7.5-7.6c0-4.2,3.4-7.5,7.6-7.5c5.8,0,11.7,0,17.5,0
	c2.9,0.1,5.6-1.5,6.9-4.2c1.4-2.4,1.3-5.3-0.3-7.6c-1.4-2.3-3.9-3.7-6.6-3.7c-3.3-0.1-6.6,0.1-9.8-0.3
	c-12.5-1.7-21.2-13.2-19.5-25.6c1.3-9.3,8.2-16.9,17.4-19.1c0.8-0.2,1.1-0.5,1-1.4c-0.1-1.6,0-3.2,0.1-4.9c0.5-4.1,4.3-7.1,8.4-6.6
	c3.7,0.5,6.5,3.5,6.6,7.2C230.3,161.3,230.2,162.9,230.2,164.7z"/>
<path class="st0" d="M365.9,27.1h16.5c4.1-0.2,7.6,3,7.8,7.2c0,0.2,0,0.4,0,0.5c0,10.1,0,20.2,0,30.4c0.2,4.1-3,7.6-7.1,7.8
	c-0.2,0-0.5,0-0.7,0c-10.9,0-21.8,0-32.7,0c-4.8,0-8-3-8-7.8c-0.1-10.1-0.1-20.2,0-30.2c0-4.8,3.3-7.8,8.1-7.8H365.9z M356.8,57.7
	h18.2V42.3h-18.2L356.8,57.7z"/>
<path class="st0" d="M56.1,461H39.7c-4.1,0.2-7.6-3-7.8-7.1c0-0.2,0-0.4,0-0.6c0-10.1,0-20.2,0-30.2c0-4.7,3.2-7.8,7.9-7.8h32.6
	c4.8,0,8,3,8,7.8c0.1,10.1,0.1,20.2,0,30.2c0,4.9-3.3,7.8-8.2,7.8H56.1z M65.1,445.8v-15.5H47.1v15.5H65.1z"/>
</svg>
