<?xml version="1.0" encoding="utf-8"?>
<!-- Generator: Adobe Illustrator 24.0.1, SVG Export Plug-In . SVG Version: 6.00 Build 0)  -->
<svg version="1.1" id="Layer_1" xmlns="http://www.w3.org/2000/svg" xmlns:xlink="http://www.w3.org/1999/xlink" x="0px" y="0px"
	 viewBox="0 0 880 763.8" style="enable-background:new 0 0 880 763.8;" xml:space="preserve">
<style type="text/css">
	.st0{fill:#1D2E4A;}
</style>
<title>56</title>
<path class="st0" d="M880,469.5c-0.9,8.9-1.8,17.8-2.7,26.7c-8.8,82-38.6,155.7-88.6,221.2c-9.9,13-20.8,25.1-31.7,37.3
	c-10.2,11.4-19.6,12.1-31.3,2.3c-6.2-5.2-11.6-11.4-17.4-17.2L663,694.7l26.1-26l49.9,51c65-73.3,100.7-157.5,105.8-255.1
	c-2.5-0.1-4.6-0.4-6.7-0.4c-20.5,0-41-0.1-61.5,0.1c-4.1,0-5.5-1.1-5.4-5.3c0.3-8.8,0.3-17.7,0-26.5c-0.1-4.2,1.5-5,5.2-4.9
	c20.8,0.2,41.7,0.1,62.5,0.1h5.9c-5.3-98.7-40.5-184.3-105.6-258.2l-50.7,51l-26-26l51.2-50.6C640.7,78,556.3,42.2,458.2,36.7v73
	h-36.4V37c-42,1.6-83.4,10-122.7,24.9c-49,18.4-92.8,45.5-131.9,81.3l51.3,50.6l-25.8,25.3l-50.6-51C76,242.9,40.6,328.7,35.2,427.5
	h73.3c0,3.1,0,5.7,0,8.3c0,7.5-0.2,15,0.2,22.5c0.3,4.7-1.1,6.3-6,6.2c-20.5-0.3-41-0.1-61.5-0.1h-6c5.2,99,40.8,185.1,106.7,259.4
	l50.7-51.5l26.2,26.4c-0.6,0.7-1.8,2-3,3.2c-15.9,15.9-31.8,31.8-47.7,47.7c-6.9,7.2-16.2,11.6-26.1,12.3
	c-9.6,0.8-17.5-2.2-24.1-9.4C53.2,680.8,14.9,597,3.2,501.2c-1.1-8.8-1.5-17.6-2.3-26.4c-0.2-1.8-0.6-3.5-0.8-5.3
	c0-14.7,0-29.3,0-44c0.9-9.1,1.8-18.2,2.8-27.2C10.1,329.3,31.5,265,69.3,207C151.4,81,267.4,11,418,0.9
	c63.2-4.2,124.6,6.4,183.3,30.4c92,37.5,163.4,99.2,214.7,184.1c32.5,53.6,53.1,113.6,60.4,175.9c1.4,11.7,2.4,23.5,3.6,35.2
	L880,469.5z"/>
<path class="st0" d="M439.9,520.7c-40.4,0.1-73.3-32.8-73.8-73.9c-0.6-41.3,31.7-75.3,72.3-76c13.6-0.4,27,3.3,38.5,10.5
	c2.8,1.8,5,2,8.1,0.4c53.2-26.9,106.5-53.7,159.7-80.4c1.8-0.9,3.6-1.8,5.3-2.7c10-4.8,20.5-1.9,25.7,7c5.1,8.7,2.8,19.3-5.9,25.6
	c-12.1,8.6-24.3,17-36.5,25.4c-38.9,27-77.8,53.9-116.7,80.8c-2.8,1.9-3.7,4-3.7,7.3C513.3,486.8,480.7,520.6,439.9,520.7z
	 M403,444.8c-0.2,21,15.7,37.8,36.2,38.1s36.9-16,37.4-37c0.4-20.5-16.2-37.7-36.5-37.9C419.6,407.9,403.1,424.4,403,444.8z"/>
</svg>
