<?xml version="1.0" encoding="utf-8"?>
<!-- Generator: Adobe Illustrator 24.0.1, SVG Export Plug-In . SVG Version: 6.00 Build 0)  -->
<svg version="1.1" id="Layer_1" xmlns="http://www.w3.org/2000/svg" xmlns:xlink="http://www.w3.org/1999/xlink" x="0px" y="0px"
	 viewBox="0 0 199.1 216.8" style="enable-background:new 0 0 199.1 216.8;" xml:space="preserve">
<style type="text/css">
	.st0{fill:#1D2E4A;}
</style>
<title>90%</title>
<path class="st0" d="M125.2,169.2c1.5,2.2,3.1,3.8,3.7,5.8c0.5,1.7-0.4,3.7-0.7,5.6c-1.7-0.6-4.1-0.6-5-1.8
	c-4.8-6.6-9.5-13.3-13.7-20.3c-2-3.3-4-3.9-7.6-2.2c4.2,6,8.5,11.7,12.2,17.7c1.1,1.7,1.6,5.5,0.7,6.4c-2.6,2.4-4.7,0.1-6.3-2.3
	c-4.7-6.7-9.3-13.4-14.2-19.9c-1.3-1.6-3.1-2.6-5.1-3.1c-8.4-1.9-16.6-3.7-21.6-11.9c-0.6-1-2.8-1-4.3-1.3
	c-7.1-1.3-14.6-1.6-21.3-4.1c-11.8-4.3-17.6-14.4-16.8-26.1C26,99.1,34.3,88,45.3,84.4c2.2-0.8,4.1-2.2,5.4-4.2
	c6.3-9.8,14.8-15,26.7-14c1.8,0.1,3.5-0.2,5.1-0.9c10.6-4.8,20.9-4.2,31.3,0.8c1.9,0.8,3.9,1.2,6,1c10-0.9,18.3,2,24.7,10.1
	c1.2,1.4,2.7,2.3,4.4,2.7c15.6,3.7,27,20.3,20.1,37c-0.5,1.3-0.5,2.8,0,4.1c6.2,13.5-1.7,27.4-16.5,30.8c-1.4,0.3-3.2,1.2-3.8,2.4
	c-4.7,8.6-11.7,13.4-21.5,14C126.5,168.6,125.8,168.9,125.2,169.2z M111.5,129.9c-1.2-0.6-2.4-1.3-3.4-2.1
	c-5.2-4.9-10.8-8.1-18.6-8.5c-8.7-0.4-16.2,2.8-18.4,10.2c-2.5,8.3,1.3,16.2,10.4,18.6c7.9,2,16.3,2.4,24.6,2.5
	c6.3,0,12.5-1.7,18.8-2.3c1.3-0.1,2.7,0.9,4.1,1.4c-1.2,1.1-2.1,2.8-3.5,3.2c-3.2,0.8-6.4,1.4-9.6,1.9c3.5,6.7,3.7,6.9,10.1,6.7
	c6.7-0.2,12.2-2.5,15.4-8.3c-5.1-2.6-9.8-4.9-14.4-7.5c-2.3-1.3-5.1-3.4-2.5-6.2c0.9-1,4.4-0.3,6.4,0.4c3.2,1.2,6.1,3.5,9.3,4.6
	c9.8,3.2,19.5-0.6,23-8.6c3.1-7.3-0.3-13.8-9.7-19.8c-1.2-0.8-1.5-3.1-2.2-4.8c1.7-0.5,3.5-1.6,5.1-1.3c2.2,0.4,4.2,1.9,6.3,3
	c4.1-9.9-2.9-22.5-13.7-24.6c-0.1,1-0.1,2-0.2,2.9c-1.2,10.3-7.3,18.7-15.6,20.5c-1.8,0.4-3.9-1.1-5.9-1.7c1.2-1.6,2.1-4.1,3.7-4.7
	c6.6-2.7,10.3-7.6,10.6-14.4S138,79,131.7,76c-8.2-3.9-15.7-1.8-22.7,5.8c-1.1,1.2-3.5,1.1-5.3,1.5c-0.1-1.9-0.8-4.1,0-5.6
	c1-2.1,3-3.8,4.8-6c-9.8-3.6-18.6-3.6-26.6,3.2c-5.1,4.3-5.5,4.4-9.2-1.5c-6.6,1.1-11.8,4.2-14.9,9.6c5.6,3,10.9,5.2,15.7,8.5
	c5.1,3.4,10.7,2.2,13.3-3.4c0.7-1.5,2.3-2.4,3.5-3.6c0.3,1.9,1.2,3.9,0.7,5.7c-1.5,6-7,7.4-12.1,8.9c0,1.9,0.5,3.8-0.1,5.2
	c-0.7,1.4-1.9,2.4-3.5,2.8c-0.9,0.1-3-1.5-3-2.5c-0.7-9-7.8-11.1-14.4-13c-10.1-2.9-19.6,2.7-23.8,13.2c-4.3,11-1.4,20.6,8.1,25.9
	c7,4,14.7,5,22.9,4.4l1.5-8.6c-2.2-0.5-4.4-0.4-6-1.4c-3.8-2.3-7.4-4.9-10.7-7.8c-0.7-0.7-0.1-2.9-0.1-4.4c1.3,0.5,2.7,1.1,3.9,1.7
	c0.5,0.3,0.7,1.1,1.2,1.6c4.6,5.2,12.4,6.2,18.1,2.3c5.3-3.8,11.1-4.8,17.5-3.5c13,2.5,20.1-5.7,16.1-18.3c-0.3-0.9-0.1-2.5,0.5-2.9
	c1-0.5,2.2-0.4,3.1,0.1c4.7,2.8,8.2,2,11.3-2.4c0.9-1.3,2.7-2,4.2-2.9c-0.1,1.9,0.7,4.7-0.3,5.6c-3.4,3.2-7.4,5.7-12.1,9
	c0.2,5.6-3,10.9-8.8,15.1c4.3,5,9,8.2,15.5,8.1c7.9-0.1,14.2-2.8,18.5-9.8c0.6-1,2.3-1.3,3.5-1.8c0.2,1.5,1,3,0.6,4.3
	c-0.5,1.3-1.1,2.5-2,3.5c3.6,3.5,6.9,6.5,9.9,9.8c0.5,0.6-0.5,2.5-0.8,3.8c-1.1-0.4-2.7-0.5-3.3-1.3c-5-6.2-8.8-7.4-16.3-5.2
	c-2.7,0.8-5.6,0.9-8.3,1.6c-2.4,0.7-5.1,1.3-6.9,2.8c-6.2,5-13,7.5-20.8,5.7c-1.4-0.3-2.4-2.2-3.5-3.3c1.5-0.5,3.1-1.5,4.5-1.3
	C101.1,136,106.5,134.8,111.5,129.9z"/>
<path class="st0" d="M96.1,26.4c3.3,3.1,6.5,6.1,9.8,9.2c2.1,2,3.2,4.5,0.5,6.3c-1.3,0.8-4.6,0.3-5.9-0.9
	c-6.8-6.3-13.3-13-20.2-19.9C87.5,13.9,94.2,7,101.2,0.5c1-1,3.8-0.2,5.7-0.2c-0.2,1.9,0.3,4.4-0.7,5.6c-3,3.7-6.7,6.8-10.4,10.5
	c8.3,1,15.9,1.5,23.3,2.8c41.3,7.7,73.5,42.8,79.2,84.6c7.2,53-30,104.8-87.4,112.1C58,222.7,7.9,183.9,0.9,130.5
	C-5.2,84.1,19.9,41.2,63.3,24c2.9-1.1,6.9-4.4,8.8,0.9c1.7,4.7-3.1,5.1-6,6.2C32,44.2,3.7,80.1,7.9,126.8
	c3.5,38.2,34.6,72.7,73.4,80.3c52.5,10.3,103.1-26.3,109.6-79.3c5.9-48.5-28.8-94.4-77-101.6c-5.7-0.9-11.4-1-17.2-1.5L96.1,26.4z"
	/>
</svg>
